<mxfile host="app.diagrams.net" agent="Mozilla/5.0 (Windows NT 10.0; Win64; x64) AppleWebKit/537.36 (KHTML, like Gecko) Chrome/128.0.0.0 Safari/537.36" version="24.7.16">
  <diagram id="R2lEEEUBdFMjLlhIrx00" name="Page-1">
    <mxGraphModel dx="1830" dy="2413" grid="1" gridSize="10" guides="1" tooltips="1" connect="1" arrows="1" fold="1" page="1" pageScale="1" pageWidth="850" pageHeight="1100" math="0" shadow="0" extFonts="Permanent Marker^https://fonts.googleapis.com/css?family=Permanent+Marker">
      <root>
        <mxCell id="0" />
        <mxCell id="1" parent="0" />
        <mxCell id="9Yya0px6hLWaVNeet3eG-322" value="Has" style="shape=rhombus;perimeter=rhombusPerimeter;whiteSpace=wrap;html=1;align=center;" vertex="1" parent="1">
          <mxGeometry x="430" y="480" width="70" height="40" as="geometry" />
        </mxCell>
        <mxCell id="9Yya0px6hLWaVNeet3eG-14" value="&lt;div&gt;Patient&lt;/div&gt;" style="whiteSpace=wrap;html=1;align=center;" vertex="1" parent="1">
          <mxGeometry x="500" y="370" width="100" height="40" as="geometry" />
        </mxCell>
        <mxCell id="9Yya0px6hLWaVNeet3eG-15" value="Doctor" style="whiteSpace=wrap;html=1;align=center;" vertex="1" parent="1">
          <mxGeometry x="640" y="70" width="100" height="40" as="geometry" />
        </mxCell>
        <mxCell id="9Yya0px6hLWaVNeet3eG-32" value="Assigned To" style="shape=rhombus;perimeter=rhombusPerimeter;whiteSpace=wrap;html=1;align=center;" vertex="1" parent="1">
          <mxGeometry x="490" y="220" width="120" height="60" as="geometry" />
        </mxCell>
        <mxCell id="9Yya0px6hLWaVNeet3eG-33" value="Nurse" style="whiteSpace=wrap;html=1;align=center;" vertex="1" parent="1">
          <mxGeometry x="500" y="-40" width="100" height="40" as="geometry" />
        </mxCell>
        <mxCell id="9Yya0px6hLWaVNeet3eG-39" value="" style="fontSize=12;html=1;endArrow=ERmany;rounded=0;exitX=0.5;exitY=0;exitDx=0;exitDy=0;entryX=0.5;entryY=1;entryDx=0;entryDy=0;" edge="1" parent="1" source="9Yya0px6hLWaVNeet3eG-32" target="9Yya0px6hLWaVNeet3eG-33">
          <mxGeometry width="100" height="100" relative="1" as="geometry">
            <mxPoint x="670" y="200" as="sourcePoint" />
            <mxPoint x="770" y="100" as="targetPoint" />
          </mxGeometry>
        </mxCell>
        <mxCell id="9Yya0px6hLWaVNeet3eG-40" value="" style="fontSize=12;html=1;endArrow=ERmany;rounded=0;exitX=0.5;exitY=1;exitDx=0;exitDy=0;entryX=0.5;entryY=0;entryDx=0;entryDy=0;" edge="1" parent="1" source="9Yya0px6hLWaVNeet3eG-32" target="9Yya0px6hLWaVNeet3eG-14">
          <mxGeometry width="100" height="100" relative="1" as="geometry">
            <mxPoint x="500" y="330" as="sourcePoint" />
            <mxPoint x="600" y="230" as="targetPoint" />
          </mxGeometry>
        </mxCell>
        <mxCell id="9Yya0px6hLWaVNeet3eG-43" value="Assigned To" style="shape=rhombus;perimeter=rhombusPerimeter;whiteSpace=wrap;html=1;align=center;" vertex="1" parent="1">
          <mxGeometry x="590" y="250" width="90" height="50" as="geometry" />
        </mxCell>
        <mxCell id="9Yya0px6hLWaVNeet3eG-44" value="" style="fontSize=12;html=1;endArrow=ERmandOne;rounded=0;entryX=0.5;entryY=1;entryDx=0;entryDy=0;exitX=0.5;exitY=0;exitDx=0;exitDy=0;edgeStyle=orthogonalEdgeStyle;" edge="1" parent="1" source="9Yya0px6hLWaVNeet3eG-43" target="9Yya0px6hLWaVNeet3eG-15">
          <mxGeometry width="100" height="100" relative="1" as="geometry">
            <mxPoint x="660" y="20" as="sourcePoint" />
            <mxPoint x="740" y="-90" as="targetPoint" />
          </mxGeometry>
        </mxCell>
        <mxCell id="9Yya0px6hLWaVNeet3eG-45" value="" style="fontSize=12;html=1;endArrow=ERmany;rounded=0;entryX=0.75;entryY=0;entryDx=0;entryDy=0;exitX=0.5;exitY=1;exitDx=0;exitDy=0;edgeStyle=orthogonalEdgeStyle;" edge="1" parent="1" source="9Yya0px6hLWaVNeet3eG-43" target="9Yya0px6hLWaVNeet3eG-14">
          <mxGeometry width="100" height="100" relative="1" as="geometry">
            <mxPoint x="650" y="-60" as="sourcePoint" />
            <mxPoint x="470" y="20" as="targetPoint" />
          </mxGeometry>
        </mxCell>
        <mxCell id="9Yya0px6hLWaVNeet3eG-46" value="Medical Records" style="shape=ext;margin=3;double=1;whiteSpace=wrap;html=1;align=center;" vertex="1" parent="1">
          <mxGeometry x="680" y="590" width="100" height="40" as="geometry" />
        </mxCell>
        <mxCell id="9Yya0px6hLWaVNeet3eG-47" value="Has" style="shape=rhombus;perimeter=rhombusPerimeter;whiteSpace=wrap;html=1;align=center;" vertex="1" parent="1">
          <mxGeometry x="610" y="470" width="120" height="60" as="geometry" />
        </mxCell>
        <mxCell id="9Yya0px6hLWaVNeet3eG-49" value="" style="edgeStyle=orthogonalEdgeStyle;fontSize=12;html=1;endArrow=ERmandOne;rounded=0;exitX=0.5;exitY=0;exitDx=0;exitDy=0;entryX=0.75;entryY=1;entryDx=0;entryDy=0;" edge="1" parent="1" source="9Yya0px6hLWaVNeet3eG-47" target="9Yya0px6hLWaVNeet3eG-14">
          <mxGeometry width="100" height="100" relative="1" as="geometry">
            <mxPoint x="630" y="410" as="sourcePoint" />
            <mxPoint x="540" y="450" as="targetPoint" />
          </mxGeometry>
        </mxCell>
        <mxCell id="9Yya0px6hLWaVNeet3eG-50" value="" style="edgeStyle=orthogonalEdgeStyle;fontSize=12;html=1;endArrow=ERmandOne;rounded=0;entryX=0.5;entryY=0;entryDx=0;entryDy=0;" edge="1" parent="1" source="9Yya0px6hLWaVNeet3eG-47" target="9Yya0px6hLWaVNeet3eG-46">
          <mxGeometry width="100" height="100" relative="1" as="geometry">
            <mxPoint x="630" y="410" as="sourcePoint" />
            <mxPoint x="730" y="310" as="targetPoint" />
            <Array as="points">
              <mxPoint x="670" y="560" />
              <mxPoint x="730" y="560" />
            </Array>
          </mxGeometry>
        </mxCell>
        <mxCell id="9Yya0px6hLWaVNeet3eG-51" value="Has" style="shape=rhombus;perimeter=rhombusPerimeter;whiteSpace=wrap;html=1;align=center;" vertex="1" parent="1">
          <mxGeometry x="760" y="280" width="120" height="60" as="geometry" />
        </mxCell>
        <mxCell id="9Yya0px6hLWaVNeet3eG-52" value="Account" style="shape=ext;margin=3;double=1;whiteSpace=wrap;html=1;align=center;" vertex="1" parent="1">
          <mxGeometry x="1050" y="30" width="100" height="40" as="geometry" />
        </mxCell>
        <mxCell id="9Yya0px6hLWaVNeet3eG-53" value="" style="edgeStyle=orthogonalEdgeStyle;fontSize=12;html=1;endArrow=ERone;endFill=1;rounded=0;entryX=0.5;entryY=1;entryDx=0;entryDy=0;" edge="1" parent="1" source="9Yya0px6hLWaVNeet3eG-51" target="9Yya0px6hLWaVNeet3eG-52">
          <mxGeometry width="100" height="100" relative="1" as="geometry">
            <mxPoint x="829.9999999999998" y="310" as="sourcePoint" />
            <mxPoint x="1110" y="100" as="targetPoint" />
          </mxGeometry>
        </mxCell>
        <mxCell id="9Yya0px6hLWaVNeet3eG-54" value="" style="edgeStyle=orthogonalEdgeStyle;fontSize=12;html=1;endArrow=ERmandOne;rounded=0;entryX=1;entryY=0.5;entryDx=0;entryDy=0;exitX=0.5;exitY=1;exitDx=0;exitDy=0;" edge="1" parent="1" source="9Yya0px6hLWaVNeet3eG-51" target="9Yya0px6hLWaVNeet3eG-14">
          <mxGeometry width="100" height="100" relative="1" as="geometry">
            <mxPoint x="500" y="390" as="sourcePoint" />
            <mxPoint x="705" y="400" as="targetPoint" />
          </mxGeometry>
        </mxCell>
        <mxCell id="9Yya0px6hLWaVNeet3eG-55" value="Emergency Contact" style="shape=ext;margin=3;double=1;whiteSpace=wrap;html=1;align=center;" vertex="1" parent="1">
          <mxGeometry x="960" y="240" width="100" height="40" as="geometry" />
        </mxCell>
        <mxCell id="9Yya0px6hLWaVNeet3eG-56" value="Has" style="shape=rhombus;perimeter=rhombusPerimeter;whiteSpace=wrap;html=1;align=center;" vertex="1" parent="1">
          <mxGeometry x="890" y="320" width="120" height="60" as="geometry" />
        </mxCell>
        <mxCell id="9Yya0px6hLWaVNeet3eG-57" value="" style="edgeStyle=orthogonalEdgeStyle;fontSize=12;html=1;endArrow=ERoneToMany;rounded=0;entryX=0.5;entryY=1;entryDx=0;entryDy=0;exitX=1;exitY=0.5;exitDx=0;exitDy=0;" edge="1" parent="1" source="9Yya0px6hLWaVNeet3eG-56" target="9Yya0px6hLWaVNeet3eG-55">
          <mxGeometry width="100" height="100" relative="1" as="geometry">
            <mxPoint x="780" y="440" as="sourcePoint" />
            <mxPoint x="880" y="340" as="targetPoint" />
          </mxGeometry>
        </mxCell>
        <mxCell id="9Yya0px6hLWaVNeet3eG-59" value="" style="edgeStyle=orthogonalEdgeStyle;fontSize=12;html=1;endArrow=ERmany;rounded=0;exitX=0;exitY=0.5;exitDx=0;exitDy=0;entryX=1;entryY=0.75;entryDx=0;entryDy=0;" edge="1" parent="1" source="9Yya0px6hLWaVNeet3eG-56" target="9Yya0px6hLWaVNeet3eG-14">
          <mxGeometry width="100" height="100" relative="1" as="geometry">
            <mxPoint x="780" y="440" as="sourcePoint" />
            <mxPoint x="730" y="420" as="targetPoint" />
            <Array as="points">
              <mxPoint x="860" y="350" />
              <mxPoint x="860" y="400" />
            </Array>
          </mxGeometry>
        </mxCell>
        <mxCell id="9Yya0px6hLWaVNeet3eG-68" value="" style="endArrow=none;html=1;rounded=0;entryX=1;entryY=0.5;entryDx=0;entryDy=0;" edge="1" parent="1" target="9Yya0px6hLWaVNeet3eG-81">
          <mxGeometry relative="1" as="geometry">
            <mxPoint x="470" y="390" as="sourcePoint" />
            <mxPoint x="450" y="330" as="targetPoint" />
          </mxGeometry>
        </mxCell>
        <mxCell id="9Yya0px6hLWaVNeet3eG-71" value="" style="endArrow=none;html=1;rounded=0;entryX=1;entryY=0.5;entryDx=0;entryDy=0;" edge="1" parent="1" target="9Yya0px6hLWaVNeet3eG-74">
          <mxGeometry relative="1" as="geometry">
            <mxPoint x="470" y="390" as="sourcePoint" />
            <mxPoint x="450" y="240" as="targetPoint" />
          </mxGeometry>
        </mxCell>
        <mxCell id="9Yya0px6hLWaVNeet3eG-72" value="" style="endArrow=none;html=1;rounded=0;exitX=0.985;exitY=0.415;exitDx=0;exitDy=0;exitPerimeter=0;" edge="1" parent="1" source="9Yya0px6hLWaVNeet3eG-76">
          <mxGeometry relative="1" as="geometry">
            <mxPoint x="450" y="490" as="sourcePoint" />
            <mxPoint x="470" y="390" as="targetPoint" />
          </mxGeometry>
        </mxCell>
        <mxCell id="9Yya0px6hLWaVNeet3eG-73" value="" style="endArrow=none;html=1;rounded=0;exitX=1;exitY=0.5;exitDx=0;exitDy=0;" edge="1" parent="1" source="9Yya0px6hLWaVNeet3eG-75">
          <mxGeometry relative="1" as="geometry">
            <mxPoint x="450" y="580" as="sourcePoint" />
            <mxPoint x="470" y="390" as="targetPoint" />
          </mxGeometry>
        </mxCell>
        <mxCell id="9Yya0px6hLWaVNeet3eG-74" value="patient_id" style="ellipse;whiteSpace=wrap;html=1;align=center;fontStyle=4;" vertex="1" parent="1">
          <mxGeometry x="-140" y="270" width="100" height="40" as="geometry" />
        </mxCell>
        <mxCell id="9Yya0px6hLWaVNeet3eG-75" value="nurse_id" style="ellipse;whiteSpace=wrap;html=1;align=center;fontStyle=4;" vertex="1" parent="1">
          <mxGeometry x="-140" y="440" width="100" height="40" as="geometry" />
        </mxCell>
        <mxCell id="9Yya0px6hLWaVNeet3eG-76" value="doctor_id" style="ellipse;whiteSpace=wrap;html=1;align=center;fontStyle=4;" vertex="1" parent="1">
          <mxGeometry x="-140" y="380" width="100" height="40" as="geometry" />
        </mxCell>
        <mxCell id="9Yya0px6hLWaVNeet3eG-79" value="age" style="ellipse;whiteSpace=wrap;html=1;align=center;dashed=1;" vertex="1" parent="1">
          <mxGeometry x="-140" y="200" width="100" height="40" as="geometry" />
        </mxCell>
        <mxCell id="9Yya0px6hLWaVNeet3eG-81" value="DOB" style="ellipse;whiteSpace=wrap;html=1;align=center;fontStyle=4;" vertex="1" parent="1">
          <mxGeometry x="-140" y="325" width="100" height="40" as="geometry" />
        </mxCell>
        <mxCell id="9Yya0px6hLWaVNeet3eG-82" value="full_name" style="ellipse;whiteSpace=wrap;html=1;align=center;fontStyle=4;" vertex="1" parent="1">
          <mxGeometry x="-140" y="500" width="100" height="40" as="geometry" />
        </mxCell>
        <mxCell id="9Yya0px6hLWaVNeet3eG-83" value="" style="endArrow=none;html=1;rounded=0;entryX=1;entryY=0.5;entryDx=0;entryDy=0;" edge="1" parent="1" target="9Yya0px6hLWaVNeet3eG-79">
          <mxGeometry relative="1" as="geometry">
            <mxPoint x="470" y="390" as="sourcePoint" />
            <mxPoint x="650" y="320" as="targetPoint" />
          </mxGeometry>
        </mxCell>
        <mxCell id="9Yya0px6hLWaVNeet3eG-84" value="" style="endArrow=none;html=1;rounded=0;entryX=1;entryY=0.5;entryDx=0;entryDy=0;" edge="1" parent="1" target="9Yya0px6hLWaVNeet3eG-82">
          <mxGeometry relative="1" as="geometry">
            <mxPoint x="470" y="390" as="sourcePoint" />
            <mxPoint x="640" y="460" as="targetPoint" />
          </mxGeometry>
        </mxCell>
        <mxCell id="9Yya0px6hLWaVNeet3eG-85" value="ISA" style="shape=rhombus;perimeter=rhombusPerimeter;whiteSpace=wrap;html=1;align=center;" vertex="1" parent="1">
          <mxGeometry x="490" y="510" width="120" height="60" as="geometry" />
        </mxCell>
        <mxCell id="9Yya0px6hLWaVNeet3eG-88" value="Child" style="shape=ext;margin=3;double=1;whiteSpace=wrap;html=1;align=center;" vertex="1" parent="1">
          <mxGeometry x="705" y="725" width="100" height="40" as="geometry" />
        </mxCell>
        <mxCell id="9Yya0px6hLWaVNeet3eG-90" value="" style="endArrow=none;html=1;rounded=0;exitX=0.5;exitY=1;exitDx=0;exitDy=0;" edge="1" parent="1" source="9Yya0px6hLWaVNeet3eG-14" target="9Yya0px6hLWaVNeet3eG-85">
          <mxGeometry relative="1" as="geometry">
            <mxPoint x="580" y="500" as="sourcePoint" />
            <mxPoint x="740" y="500" as="targetPoint" />
          </mxGeometry>
        </mxCell>
        <mxCell id="9Yya0px6hLWaVNeet3eG-91" value="" style="endArrow=none;html=1;rounded=0;exitX=0.5;exitY=0;exitDx=0;exitDy=0;entryX=0.5;entryY=1;entryDx=0;entryDy=0;" edge="1" parent="1" source="9Yya0px6hLWaVNeet3eG-285" target="9Yya0px6hLWaVNeet3eG-85">
          <mxGeometry relative="1" as="geometry">
            <mxPoint x="360" y="680.0000000000005" as="sourcePoint" />
            <mxPoint x="740" y="500" as="targetPoint" />
          </mxGeometry>
        </mxCell>
        <mxCell id="9Yya0px6hLWaVNeet3eG-93" value="" style="endArrow=none;html=1;rounded=0;exitX=0.5;exitY=1;exitDx=0;exitDy=0;entryX=0.5;entryY=0;entryDx=0;entryDy=0;" edge="1" parent="1" source="9Yya0px6hLWaVNeet3eG-85" target="9Yya0px6hLWaVNeet3eG-88">
          <mxGeometry relative="1" as="geometry">
            <mxPoint x="580" y="500" as="sourcePoint" />
            <mxPoint x="740" y="500" as="targetPoint" />
          </mxGeometry>
        </mxCell>
        <mxCell id="9Yya0px6hLWaVNeet3eG-94" value="Has" style="shape=rhombus;perimeter=rhombusPerimeter;whiteSpace=wrap;html=1;align=center;" vertex="1" parent="1">
          <mxGeometry x="575" y="720" width="90" height="50" as="geometry" />
        </mxCell>
        <mxCell id="9Yya0px6hLWaVNeet3eG-96" value="" style="fontSize=12;html=1;endArrow=ERone;endFill=1;rounded=0;exitX=0;exitY=0.5;exitDx=0;exitDy=0;edgeStyle=orthogonalEdgeStyle;entryX=1;entryY=0.5;entryDx=0;entryDy=0;" edge="1" parent="1" source="9Yya0px6hLWaVNeet3eG-94" target="9Yya0px6hLWaVNeet3eG-285">
          <mxGeometry width="100" height="100" relative="1" as="geometry">
            <mxPoint x="460" y="700" as="sourcePoint" />
            <mxPoint x="550" y="760" as="targetPoint" />
          </mxGeometry>
        </mxCell>
        <mxCell id="9Yya0px6hLWaVNeet3eG-97" value="Lab Test" style="shape=ext;margin=3;double=1;whiteSpace=wrap;html=1;align=center;" vertex="1" parent="1">
          <mxGeometry x="850" y="480" width="100" height="40" as="geometry" />
        </mxCell>
        <mxCell id="9Yya0px6hLWaVNeet3eG-98" value="Has" style="shape=rhombus;perimeter=rhombusPerimeter;whiteSpace=wrap;html=1;align=center;" vertex="1" parent="1">
          <mxGeometry x="710" y="440" width="90" height="40" as="geometry" />
        </mxCell>
        <mxCell id="9Yya0px6hLWaVNeet3eG-99" value="" style="edgeStyle=orthogonalEdgeStyle;fontSize=12;html=1;endArrow=ERzeroToMany;endFill=1;rounded=0;exitX=1;exitY=0.5;exitDx=0;exitDy=0;entryX=0;entryY=0.5;entryDx=0;entryDy=0;" edge="1" parent="1" source="9Yya0px6hLWaVNeet3eG-98" target="9Yya0px6hLWaVNeet3eG-97">
          <mxGeometry width="100" height="100" relative="1" as="geometry">
            <mxPoint x="610" y="470" as="sourcePoint" />
            <mxPoint x="710" y="370" as="targetPoint" />
          </mxGeometry>
        </mxCell>
        <mxCell id="9Yya0px6hLWaVNeet3eG-100" value="" style="edgeStyle=orthogonalEdgeStyle;fontSize=12;html=1;endArrow=ERmandOne;rounded=0;entryX=1;entryY=1;entryDx=0;entryDy=0;exitX=0;exitY=0.5;exitDx=0;exitDy=0;" edge="1" parent="1" source="9Yya0px6hLWaVNeet3eG-98" target="9Yya0px6hLWaVNeet3eG-14">
          <mxGeometry width="100" height="100" relative="1" as="geometry">
            <mxPoint x="610" y="470" as="sourcePoint" />
            <mxPoint x="710" y="370" as="targetPoint" />
            <Array as="points">
              <mxPoint x="710" y="430" />
              <mxPoint x="600" y="430" />
            </Array>
          </mxGeometry>
        </mxCell>
        <mxCell id="9Yya0px6hLWaVNeet3eG-101" value="Diagnosis" style="whiteSpace=wrap;html=1;align=center;" vertex="1" parent="1">
          <mxGeometry x="-10" y="-30" width="100" height="40" as="geometry" />
        </mxCell>
        <mxCell id="9Yya0px6hLWaVNeet3eG-102" value="Has" style="shape=rhombus;perimeter=rhombusPerimeter;whiteSpace=wrap;html=1;align=center;" vertex="1" parent="1">
          <mxGeometry x="330" y="130" width="120" height="60" as="geometry" />
        </mxCell>
        <mxCell id="9Yya0px6hLWaVNeet3eG-104" value="" style="fontSize=12;html=1;endArrow=ERzeroToMany;endFill=1;rounded=0;exitX=0.5;exitY=0;exitDx=0;exitDy=0;edgeStyle=orthogonalEdgeStyle;elbow=vertical;entryX=0.5;entryY=1;entryDx=0;entryDy=0;" edge="1" parent="1" source="9Yya0px6hLWaVNeet3eG-102" target="9Yya0px6hLWaVNeet3eG-101">
          <mxGeometry width="100" height="100" relative="1" as="geometry">
            <mxPoint x="580" y="250" as="sourcePoint" />
            <mxPoint x="310" y="60" as="targetPoint" />
          </mxGeometry>
        </mxCell>
        <mxCell id="9Yya0px6hLWaVNeet3eG-105" value="" style="edgeStyle=orthogonalEdgeStyle;fontSize=12;html=1;endArrow=ERzeroToOne;endFill=1;rounded=0;exitX=0.5;exitY=1;exitDx=0;exitDy=0;entryX=0.25;entryY=0;entryDx=0;entryDy=0;" edge="1" parent="1" source="9Yya0px6hLWaVNeet3eG-102" target="9Yya0px6hLWaVNeet3eG-14">
          <mxGeometry width="100" height="100" relative="1" as="geometry">
            <mxPoint x="275" y="230" as="sourcePoint" />
            <mxPoint x="425" y="340" as="targetPoint" />
          </mxGeometry>
        </mxCell>
        <mxCell id="9Yya0px6hLWaVNeet3eG-106" value="" style="endArrow=none;html=1;rounded=0;entryX=0;entryY=0.5;entryDx=0;entryDy=0;" edge="1" parent="1" target="9Yya0px6hLWaVNeet3eG-14">
          <mxGeometry relative="1" as="geometry">
            <mxPoint x="470" y="390" as="sourcePoint" />
            <mxPoint x="620" y="340" as="targetPoint" />
          </mxGeometry>
        </mxCell>
        <mxCell id="9Yya0px6hLWaVNeet3eG-107" value="" style="fontSize=12;html=1;endArrow=ERzeroToMany;endFill=1;rounded=0;exitX=1;exitY=0.5;exitDx=0;exitDy=0;entryX=0;entryY=0.5;entryDx=0;entryDy=0;" edge="1" parent="1" source="9Yya0px6hLWaVNeet3eG-94" target="9Yya0px6hLWaVNeet3eG-88">
          <mxGeometry width="100" height="100" relative="1" as="geometry">
            <mxPoint x="565" y="725" as="sourcePoint" />
            <mxPoint x="665" y="625" as="targetPoint" />
          </mxGeometry>
        </mxCell>
        <mxCell id="9Yya0px6hLWaVNeet3eG-108" value="Bill" style="shape=ext;margin=3;double=1;whiteSpace=wrap;html=1;align=center;" vertex="1" parent="1">
          <mxGeometry x="1050" y="-210" width="100" height="40" as="geometry" />
        </mxCell>
        <mxCell id="9Yya0px6hLWaVNeet3eG-109" value="Has" style="shape=rhombus;perimeter=rhombusPerimeter;whiteSpace=wrap;html=1;align=center;" vertex="1" parent="1">
          <mxGeometry x="1030" y="-110" width="80" height="40" as="geometry" />
        </mxCell>
        <mxCell id="9Yya0px6hLWaVNeet3eG-120" value="Appointment" style="shape=ext;margin=3;double=1;whiteSpace=wrap;html=1;align=center;" vertex="1" parent="1">
          <mxGeometry x="920" y="-460" width="100" height="40" as="geometry" />
        </mxCell>
        <mxCell id="9Yya0px6hLWaVNeet3eG-121" value="Has" style="shape=rhombus;perimeter=rhombusPerimeter;whiteSpace=wrap;html=1;align=center;" vertex="1" parent="1">
          <mxGeometry x="680" y="200" width="100" height="50" as="geometry" />
        </mxCell>
        <mxCell id="9Yya0px6hLWaVNeet3eG-122" value="Has" style="shape=rhombus;perimeter=rhombusPerimeter;whiteSpace=wrap;html=1;align=center;" vertex="1" parent="1">
          <mxGeometry x="800" y="70" width="80" height="40" as="geometry" />
        </mxCell>
        <mxCell id="9Yya0px6hLWaVNeet3eG-124" value="" style="edgeStyle=orthogonalEdgeStyle;fontSize=12;html=1;endArrow=ERzeroToMany;endFill=1;rounded=0;entryX=0.5;entryY=1;entryDx=0;entryDy=0;exitX=0.5;exitY=0;exitDx=0;exitDy=0;" edge="1" parent="1" source="9Yya0px6hLWaVNeet3eG-121" target="9Yya0px6hLWaVNeet3eG-120">
          <mxGeometry width="100" height="100" relative="1" as="geometry">
            <mxPoint x="890" y="240" as="sourcePoint" />
            <mxPoint x="990" y="140" as="targetPoint" />
            <Array as="points">
              <mxPoint x="730" y="120" />
              <mxPoint x="970" y="120" />
            </Array>
          </mxGeometry>
        </mxCell>
        <mxCell id="9Yya0px6hLWaVNeet3eG-125" value="" style="edgeStyle=orthogonalEdgeStyle;fontSize=12;html=1;endArrow=ERmandOne;rounded=0;entryX=1;entryY=0;entryDx=0;entryDy=0;exitX=0.5;exitY=1;exitDx=0;exitDy=0;" edge="1" parent="1" source="9Yya0px6hLWaVNeet3eG-121" target="9Yya0px6hLWaVNeet3eG-14">
          <mxGeometry width="100" height="100" relative="1" as="geometry">
            <mxPoint x="720" y="310" as="sourcePoint" />
            <mxPoint x="820" y="210" as="targetPoint" />
            <Array as="points">
              <mxPoint x="730" y="370" />
            </Array>
          </mxGeometry>
        </mxCell>
        <mxCell id="9Yya0px6hLWaVNeet3eG-127" value="" style="fontSize=12;html=1;endArrow=ERzeroToMany;endFill=1;rounded=0;exitX=1;exitY=0.5;exitDx=0;exitDy=0;entryX=0;entryY=0.5;entryDx=0;entryDy=0;edgeStyle=orthogonalEdgeStyle;" edge="1" parent="1" source="9Yya0px6hLWaVNeet3eG-122" target="9Yya0px6hLWaVNeet3eG-120">
          <mxGeometry width="100" height="100" relative="1" as="geometry">
            <mxPoint x="720" y="310" as="sourcePoint" />
            <mxPoint x="820" y="210" as="targetPoint" />
          </mxGeometry>
        </mxCell>
        <mxCell id="9Yya0px6hLWaVNeet3eG-128" value="" style="fontSize=12;html=1;endArrow=ERmandOne;rounded=0;entryX=1;entryY=0.5;entryDx=0;entryDy=0;exitX=0;exitY=0.5;exitDx=0;exitDy=0;" edge="1" parent="1" source="9Yya0px6hLWaVNeet3eG-122" target="9Yya0px6hLWaVNeet3eG-15">
          <mxGeometry width="100" height="100" relative="1" as="geometry">
            <mxPoint x="720" y="310" as="sourcePoint" />
            <mxPoint x="820" y="210" as="targetPoint" />
          </mxGeometry>
        </mxCell>
        <mxCell id="9Yya0px6hLWaVNeet3eG-136" value="full_name" style="ellipse;whiteSpace=wrap;html=1;align=center;fontStyle=4;" vertex="1" parent="1">
          <mxGeometry x="1130" y="180" width="100" height="40" as="geometry" />
        </mxCell>
        <mxCell id="9Yya0px6hLWaVNeet3eG-137" value="phone_number&lt;span style=&quot;color: rgba(0, 0, 0, 0); font-family: monospace; font-size: 0px; text-align: start; text-wrap: nowrap;&quot;&gt;%3CmxGraphModel%3E%3Croot%3E%3CmxCell%20id%3D%220%22%2F%3E%3CmxCell%20id%3D%221%22%20parent%3D%220%22%2F%3E%3CmxCell%20id%3D%222%22%20value%3D%22full_name%22%20style%3D%22ellipse%3BwhiteSpace%3Dwrap%3Bhtml%3D1%3Balign%3Dcenter%3BfontStyle%3D4%3B%22%20vertex%3D%221%22%20parent%3D%221%22%3E%3CmxGeometry%20x%3D%221090%22%20y%3D%22200%22%20width%3D%22100%22%20height%3D%2240%22%20as%3D%22geometry%22%2F%3E%3C%2FmxCell%3E%3C%2Froot%3E%3C%2FmxGraphModel%3E&lt;/span&gt;" style="ellipse;whiteSpace=wrap;html=1;align=center;fontStyle=4;" vertex="1" parent="1">
          <mxGeometry x="1130" y="220" width="100" height="40" as="geometry" />
        </mxCell>
        <mxCell id="9Yya0px6hLWaVNeet3eG-138" value="relationship" style="ellipse;whiteSpace=wrap;html=1;align=center;fontStyle=4;" vertex="1" parent="1">
          <mxGeometry x="1130" y="260" width="100" height="40" as="geometry" />
        </mxCell>
        <mxCell id="9Yya0px6hLWaVNeet3eG-139" value="patient_id" style="ellipse;whiteSpace=wrap;html=1;align=center;" vertex="1" parent="1">
          <mxGeometry x="1130" y="300" width="100" height="40" as="geometry" />
        </mxCell>
        <mxCell id="9Yya0px6hLWaVNeet3eG-140" value="" style="endArrow=none;html=1;rounded=0;entryX=1;entryY=0.5;entryDx=0;entryDy=0;" edge="1" parent="1" target="9Yya0px6hLWaVNeet3eG-55">
          <mxGeometry relative="1" as="geometry">
            <mxPoint x="1110" y="260" as="sourcePoint" />
            <mxPoint x="1120" y="270" as="targetPoint" />
          </mxGeometry>
        </mxCell>
        <mxCell id="9Yya0px6hLWaVNeet3eG-148" value="" style="endArrow=none;html=1;rounded=0;entryX=0;entryY=0.5;entryDx=0;entryDy=0;" edge="1" parent="1" target="9Yya0px6hLWaVNeet3eG-136">
          <mxGeometry relative="1" as="geometry">
            <mxPoint x="1110" y="260" as="sourcePoint" />
            <mxPoint x="1120" y="270" as="targetPoint" />
          </mxGeometry>
        </mxCell>
        <mxCell id="9Yya0px6hLWaVNeet3eG-149" value="" style="endArrow=none;html=1;rounded=0;entryX=0;entryY=0.5;entryDx=0;entryDy=0;" edge="1" parent="1" target="9Yya0px6hLWaVNeet3eG-137">
          <mxGeometry relative="1" as="geometry">
            <mxPoint x="1110" y="260" as="sourcePoint" />
            <mxPoint x="1140" y="210" as="targetPoint" />
          </mxGeometry>
        </mxCell>
        <mxCell id="9Yya0px6hLWaVNeet3eG-150" value="" style="endArrow=none;html=1;rounded=0;entryX=0;entryY=0.5;entryDx=0;entryDy=0;" edge="1" parent="1" target="9Yya0px6hLWaVNeet3eG-138">
          <mxGeometry relative="1" as="geometry">
            <mxPoint x="1110" y="260" as="sourcePoint" />
            <mxPoint x="1150" y="220" as="targetPoint" />
          </mxGeometry>
        </mxCell>
        <mxCell id="9Yya0px6hLWaVNeet3eG-151" value="" style="endArrow=none;html=1;rounded=0;entryX=0;entryY=0.5;entryDx=0;entryDy=0;" edge="1" parent="1" target="9Yya0px6hLWaVNeet3eG-139">
          <mxGeometry relative="1" as="geometry">
            <mxPoint x="1110" y="260" as="sourcePoint" />
            <mxPoint x="1160" y="230" as="targetPoint" />
          </mxGeometry>
        </mxCell>
        <mxCell id="9Yya0px6hLWaVNeet3eG-152" value="patient_id" style="ellipse;whiteSpace=wrap;html=1;align=center;" vertex="1" parent="1">
          <mxGeometry x="1000" y="420" width="100" height="40" as="geometry" />
        </mxCell>
        <mxCell id="9Yya0px6hLWaVNeet3eG-153" value="doctor_id" style="ellipse;whiteSpace=wrap;html=1;align=center;" vertex="1" parent="1">
          <mxGeometry x="1000" y="460" width="100" height="40" as="geometry" />
        </mxCell>
        <mxCell id="9Yya0px6hLWaVNeet3eG-154" value="result" style="ellipse;whiteSpace=wrap;html=1;align=center;fontStyle=4;" vertex="1" parent="1">
          <mxGeometry x="1000" y="500" width="100" height="40" as="geometry" />
        </mxCell>
        <mxCell id="9Yya0px6hLWaVNeet3eG-156" value="type" style="ellipse;whiteSpace=wrap;html=1;align=center;fontStyle=4;" vertex="1" parent="1">
          <mxGeometry x="1000" y="540" width="100" height="40" as="geometry" />
        </mxCell>
        <mxCell id="9Yya0px6hLWaVNeet3eG-157" value="" style="endArrow=none;html=1;rounded=0;exitX=1;exitY=0.5;exitDx=0;exitDy=0;" edge="1" parent="1" source="9Yya0px6hLWaVNeet3eG-97">
          <mxGeometry relative="1" as="geometry">
            <mxPoint x="910" y="490" as="sourcePoint" />
            <mxPoint x="980" y="500" as="targetPoint" />
          </mxGeometry>
        </mxCell>
        <mxCell id="9Yya0px6hLWaVNeet3eG-158" value="" style="endArrow=none;html=1;rounded=0;entryX=0;entryY=0.5;entryDx=0;entryDy=0;" edge="1" parent="1" target="9Yya0px6hLWaVNeet3eG-156">
          <mxGeometry relative="1" as="geometry">
            <mxPoint x="980" y="500" as="sourcePoint" />
            <mxPoint x="1070" y="490" as="targetPoint" />
          </mxGeometry>
        </mxCell>
        <mxCell id="9Yya0px6hLWaVNeet3eG-159" value="" style="endArrow=none;html=1;rounded=0;entryX=0;entryY=0.5;entryDx=0;entryDy=0;" edge="1" parent="1" target="9Yya0px6hLWaVNeet3eG-154">
          <mxGeometry relative="1" as="geometry">
            <mxPoint x="980" y="500" as="sourcePoint" />
            <mxPoint x="1070" y="490" as="targetPoint" />
          </mxGeometry>
        </mxCell>
        <mxCell id="9Yya0px6hLWaVNeet3eG-160" value="" style="endArrow=none;html=1;rounded=0;entryX=0;entryY=0.5;entryDx=0;entryDy=0;" edge="1" parent="1" target="9Yya0px6hLWaVNeet3eG-153">
          <mxGeometry relative="1" as="geometry">
            <mxPoint x="980" y="500" as="sourcePoint" />
            <mxPoint x="1070" y="490" as="targetPoint" />
          </mxGeometry>
        </mxCell>
        <mxCell id="9Yya0px6hLWaVNeet3eG-161" value="" style="endArrow=none;html=1;rounded=0;entryX=0;entryY=0.5;entryDx=0;entryDy=0;" edge="1" parent="1" target="9Yya0px6hLWaVNeet3eG-152">
          <mxGeometry relative="1" as="geometry">
            <mxPoint x="980" y="500" as="sourcePoint" />
            <mxPoint x="1070" y="490" as="targetPoint" />
          </mxGeometry>
        </mxCell>
        <mxCell id="9Yya0px6hLWaVNeet3eG-163" value="doctor_id" style="ellipse;whiteSpace=wrap;html=1;align=center;" vertex="1" parent="1">
          <mxGeometry x="830" y="580" width="100" height="40" as="geometry" />
        </mxCell>
        <mxCell id="9Yya0px6hLWaVNeet3eG-164" value="patient_id" style="ellipse;whiteSpace=wrap;html=1;align=center;" vertex="1" parent="1">
          <mxGeometry x="830" y="540" width="100" height="40" as="geometry" />
        </mxCell>
        <mxCell id="9Yya0px6hLWaVNeet3eG-167" value="date" style="ellipse;whiteSpace=wrap;html=1;align=center;fontStyle=4;" vertex="1" parent="1">
          <mxGeometry x="830" y="620" width="100" height="40" as="geometry" />
        </mxCell>
        <mxCell id="9Yya0px6hLWaVNeet3eG-168" value="medical_history" style="ellipse;whiteSpace=wrap;html=1;align=center;fontStyle=4;" vertex="1" parent="1">
          <mxGeometry x="830" y="660" width="100" height="40" as="geometry" />
        </mxCell>
        <mxCell id="9Yya0px6hLWaVNeet3eG-169" value="" style="endArrow=none;html=1;rounded=0;exitX=1;exitY=0.5;exitDx=0;exitDy=0;" edge="1" parent="1" source="9Yya0px6hLWaVNeet3eG-46">
          <mxGeometry relative="1" as="geometry">
            <mxPoint x="730" y="610" as="sourcePoint" />
            <mxPoint x="810" y="610" as="targetPoint" />
          </mxGeometry>
        </mxCell>
        <mxCell id="9Yya0px6hLWaVNeet3eG-170" value="" style="endArrow=none;html=1;rounded=0;entryX=0;entryY=0.5;entryDx=0;entryDy=0;" edge="1" parent="1" target="9Yya0px6hLWaVNeet3eG-163">
          <mxGeometry relative="1" as="geometry">
            <mxPoint x="810" y="610" as="sourcePoint" />
            <mxPoint x="890" y="610" as="targetPoint" />
          </mxGeometry>
        </mxCell>
        <mxCell id="9Yya0px6hLWaVNeet3eG-171" value="" style="endArrow=none;html=1;rounded=0;entryX=0;entryY=0.5;entryDx=0;entryDy=0;" edge="1" parent="1" target="9Yya0px6hLWaVNeet3eG-167">
          <mxGeometry relative="1" as="geometry">
            <mxPoint x="810" y="610" as="sourcePoint" />
            <mxPoint x="890" y="610" as="targetPoint" />
          </mxGeometry>
        </mxCell>
        <mxCell id="9Yya0px6hLWaVNeet3eG-172" value="" style="endArrow=none;html=1;rounded=0;entryX=0;entryY=0.5;entryDx=0;entryDy=0;" edge="1" parent="1" target="9Yya0px6hLWaVNeet3eG-168">
          <mxGeometry relative="1" as="geometry">
            <mxPoint x="810" y="610" as="sourcePoint" />
            <mxPoint x="890" y="610" as="targetPoint" />
          </mxGeometry>
        </mxCell>
        <mxCell id="9Yya0px6hLWaVNeet3eG-173" value="" style="endArrow=none;html=1;rounded=0;entryX=0;entryY=0.5;entryDx=0;entryDy=0;" edge="1" parent="1" target="9Yya0px6hLWaVNeet3eG-164">
          <mxGeometry relative="1" as="geometry">
            <mxPoint x="810" y="610" as="sourcePoint" />
            <mxPoint x="890" y="610" as="targetPoint" />
          </mxGeometry>
        </mxCell>
        <mxCell id="9Yya0px6hLWaVNeet3eG-174" value="parent_id" style="ellipse;whiteSpace=wrap;html=1;align=center;" vertex="1" parent="1">
          <mxGeometry x="785" y="775" width="100" height="40" as="geometry" />
        </mxCell>
        <mxCell id="9Yya0px6hLWaVNeet3eG-175" value="patient_id" style="ellipse;whiteSpace=wrap;html=1;align=center;" vertex="1" parent="1">
          <mxGeometry x="625" y="775" width="100" height="40" as="geometry" />
        </mxCell>
        <mxCell id="9Yya0px6hLWaVNeet3eG-177" value="" style="endArrow=none;html=1;rounded=0;exitX=0.5;exitY=1;exitDx=0;exitDy=0;entryX=0.5;entryY=0;entryDx=0;entryDy=0;" edge="1" parent="1" source="9Yya0px6hLWaVNeet3eG-88" target="9Yya0px6hLWaVNeet3eG-175">
          <mxGeometry relative="1" as="geometry">
            <mxPoint x="695" y="795" as="sourcePoint" />
            <mxPoint x="855" y="795" as="targetPoint" />
          </mxGeometry>
        </mxCell>
        <mxCell id="9Yya0px6hLWaVNeet3eG-178" value="" style="endArrow=none;html=1;rounded=0;entryX=0.5;entryY=0;entryDx=0;entryDy=0;" edge="1" parent="1" target="9Yya0px6hLWaVNeet3eG-174">
          <mxGeometry relative="1" as="geometry">
            <mxPoint x="755" y="765" as="sourcePoint" />
            <mxPoint x="855" y="795" as="targetPoint" />
          </mxGeometry>
        </mxCell>
        <mxCell id="9Yya0px6hLWaVNeet3eG-179" value="parent_id" style="ellipse;whiteSpace=wrap;html=1;align=center;fontStyle=4;" vertex="1" parent="1">
          <mxGeometry x="430" y="840" width="100" height="40" as="geometry" />
        </mxCell>
        <mxCell id="9Yya0px6hLWaVNeet3eG-180" value="" style="endArrow=none;html=1;rounded=0;exitX=0.5;exitY=1;exitDx=0;exitDy=0;entryX=0.5;entryY=0;entryDx=0;entryDy=0;" edge="1" parent="1" target="9Yya0px6hLWaVNeet3eG-179">
          <mxGeometry relative="1" as="geometry">
            <mxPoint x="480" y="800.0000000000005" as="sourcePoint" />
            <mxPoint x="550" y="830" as="targetPoint" />
          </mxGeometry>
        </mxCell>
        <mxCell id="9Yya0px6hLWaVNeet3eG-184" value="patient_id" style="ellipse;whiteSpace=wrap;html=1;align=center;" vertex="1" parent="1">
          <mxGeometry x="1060" y="-490" width="100" height="40" as="geometry" />
        </mxCell>
        <mxCell id="9Yya0px6hLWaVNeet3eG-185" value="doctor_id" style="ellipse;whiteSpace=wrap;html=1;align=center;" vertex="1" parent="1">
          <mxGeometry x="1060" y="-410" width="100" height="40" as="geometry" />
        </mxCell>
        <mxCell id="9Yya0px6hLWaVNeet3eG-186" value="&lt;span style=&quot;border-bottom: 1px dotted&quot;&gt;reason_for_visit&lt;/span&gt;" style="ellipse;whiteSpace=wrap;html=1;align=center;" vertex="1" parent="1">
          <mxGeometry x="1060" y="-450" width="100" height="40" as="geometry" />
        </mxCell>
        <mxCell id="9Yya0px6hLWaVNeet3eG-187" value="&lt;span style=&quot;border-bottom: 1px dotted&quot;&gt;date_time&lt;/span&gt;" style="ellipse;whiteSpace=wrap;html=1;align=center;" vertex="1" parent="1">
          <mxGeometry x="1050" y="-530" width="100" height="40" as="geometry" />
        </mxCell>
        <mxCell id="9Yya0px6hLWaVNeet3eG-188" value="" style="endArrow=none;html=1;rounded=0;exitX=1;exitY=0.5;exitDx=0;exitDy=0;entryX=0;entryY=0.5;entryDx=0;entryDy=0;" edge="1" parent="1" source="9Yya0px6hLWaVNeet3eG-120" target="9Yya0px6hLWaVNeet3eG-187">
          <mxGeometry relative="1" as="geometry">
            <mxPoint x="970" y="-430" as="sourcePoint" />
            <mxPoint x="1130" y="-430" as="targetPoint" />
          </mxGeometry>
        </mxCell>
        <mxCell id="9Yya0px6hLWaVNeet3eG-189" value="" style="endArrow=none;html=1;rounded=0;exitX=1;exitY=0.5;exitDx=0;exitDy=0;entryX=0;entryY=0.5;entryDx=0;entryDy=0;" edge="1" parent="1" source="9Yya0px6hLWaVNeet3eG-120" target="9Yya0px6hLWaVNeet3eG-184">
          <mxGeometry relative="1" as="geometry">
            <mxPoint x="970" y="-430" as="sourcePoint" />
            <mxPoint x="1130" y="-430" as="targetPoint" />
          </mxGeometry>
        </mxCell>
        <mxCell id="9Yya0px6hLWaVNeet3eG-190" value="" style="endArrow=none;html=1;rounded=0;exitX=1;exitY=0.5;exitDx=0;exitDy=0;entryX=0;entryY=0.5;entryDx=0;entryDy=0;" edge="1" parent="1" source="9Yya0px6hLWaVNeet3eG-120" target="9Yya0px6hLWaVNeet3eG-186">
          <mxGeometry relative="1" as="geometry">
            <mxPoint x="970" y="-430" as="sourcePoint" />
            <mxPoint x="1130" y="-430" as="targetPoint" />
          </mxGeometry>
        </mxCell>
        <mxCell id="9Yya0px6hLWaVNeet3eG-191" value="" style="endArrow=none;html=1;rounded=0;exitX=1;exitY=0.5;exitDx=0;exitDy=0;entryX=0;entryY=0.5;entryDx=0;entryDy=0;" edge="1" parent="1" source="9Yya0px6hLWaVNeet3eG-120" target="9Yya0px6hLWaVNeet3eG-185">
          <mxGeometry relative="1" as="geometry">
            <mxPoint x="970" y="-430" as="sourcePoint" />
            <mxPoint x="1130" y="-430" as="targetPoint" />
          </mxGeometry>
        </mxCell>
        <mxCell id="9Yya0px6hLWaVNeet3eG-192" value="nurse_id" style="ellipse;whiteSpace=wrap;html=1;align=center;" vertex="1" parent="1">
          <mxGeometry x="425" y="-110" width="100" height="40" as="geometry" />
        </mxCell>
        <mxCell id="9Yya0px6hLWaVNeet3eG-195" value="" style="endArrow=none;html=1;rounded=0;exitX=0.5;exitY=0;exitDx=0;exitDy=0;entryX=0;entryY=1;entryDx=0;entryDy=0;" edge="1" parent="1" source="9Yya0px6hLWaVNeet3eG-33">
          <mxGeometry relative="1" as="geometry">
            <mxPoint x="500" y="10" as="sourcePoint" />
            <mxPoint x="594.6446609406796" y="-75.85786437627189" as="targetPoint" />
          </mxGeometry>
        </mxCell>
        <mxCell id="9Yya0px6hLWaVNeet3eG-196" value="" style="endArrow=none;html=1;rounded=0;exitX=0.5;exitY=1;exitDx=0;exitDy=0;" edge="1" parent="1" target="9Yya0px6hLWaVNeet3eG-33">
          <mxGeometry relative="1" as="geometry">
            <mxPoint x="550" y="-100.00000000000023" as="sourcePoint" />
            <mxPoint x="660" y="10" as="targetPoint" />
          </mxGeometry>
        </mxCell>
        <mxCell id="9Yya0px6hLWaVNeet3eG-197" value="" style="endArrow=none;html=1;rounded=0;exitX=1;exitY=1;exitDx=0;exitDy=0;entryX=0.5;entryY=0;entryDx=0;entryDy=0;" edge="1" parent="1" source="9Yya0px6hLWaVNeet3eG-192" target="9Yya0px6hLWaVNeet3eG-33">
          <mxGeometry relative="1" as="geometry">
            <mxPoint x="500" y="10" as="sourcePoint" />
            <mxPoint x="660" y="10" as="targetPoint" />
          </mxGeometry>
        </mxCell>
        <mxCell id="9Yya0px6hLWaVNeet3eG-198" value="doctor_id" style="ellipse;whiteSpace=wrap;html=1;align=center;" vertex="1" parent="1">
          <mxGeometry x="570" y="10" width="100" height="40" as="geometry" />
        </mxCell>
        <mxCell id="9Yya0px6hLWaVNeet3eG-199" value="first_name" style="ellipse;whiteSpace=wrap;html=1;align=center;fontStyle=4;" vertex="1" parent="1">
          <mxGeometry x="640" y="-30" width="100" height="40" as="geometry" />
        </mxCell>
        <mxCell id="9Yya0px6hLWaVNeet3eG-200" value="last_name" style="ellipse;whiteSpace=wrap;html=1;align=center;fontStyle=4;" vertex="1" parent="1">
          <mxGeometry x="710" y="10" width="100" height="40" as="geometry" />
        </mxCell>
        <mxCell id="9Yya0px6hLWaVNeet3eG-204" value="" style="endArrow=none;html=1;rounded=0;exitX=0;exitY=1;exitDx=0;exitDy=0;" edge="1" parent="1" source="9Yya0px6hLWaVNeet3eG-200">
          <mxGeometry relative="1" as="geometry">
            <mxPoint x="570" y="70" as="sourcePoint" />
            <mxPoint x="690" y="70" as="targetPoint" />
          </mxGeometry>
        </mxCell>
        <mxCell id="9Yya0px6hLWaVNeet3eG-205" value="" style="endArrow=none;html=1;rounded=0;exitX=1;exitY=1;exitDx=0;exitDy=0;" edge="1" parent="1" source="9Yya0px6hLWaVNeet3eG-198">
          <mxGeometry relative="1" as="geometry">
            <mxPoint x="570" y="70" as="sourcePoint" />
            <mxPoint x="690" y="70" as="targetPoint" />
          </mxGeometry>
        </mxCell>
        <mxCell id="9Yya0px6hLWaVNeet3eG-206" value="" style="endArrow=none;html=1;rounded=0;exitX=0.5;exitY=1;exitDx=0;exitDy=0;" edge="1" parent="1" source="9Yya0px6hLWaVNeet3eG-199">
          <mxGeometry relative="1" as="geometry">
            <mxPoint x="570" y="70" as="sourcePoint" />
            <mxPoint x="690" y="70" as="targetPoint" />
          </mxGeometry>
        </mxCell>
        <mxCell id="9Yya0px6hLWaVNeet3eG-207" value="first_name" style="ellipse;whiteSpace=wrap;html=1;align=center;fontStyle=4;" vertex="1" parent="1">
          <mxGeometry x="580" y="-110" width="100" height="40" as="geometry" />
        </mxCell>
        <mxCell id="9Yya0px6hLWaVNeet3eG-208" value="last_name" style="ellipse;whiteSpace=wrap;html=1;align=center;fontStyle=4;" vertex="1" parent="1">
          <mxGeometry x="500" y="-140" width="100" height="40" as="geometry" />
        </mxCell>
        <mxCell id="9Yya0px6hLWaVNeet3eG-214" value="grade_level" style="ellipse;whiteSpace=wrap;html=1;align=center;fontStyle=4;" vertex="1" parent="1">
          <mxGeometry x="705" y="805" width="100" height="40" as="geometry" />
        </mxCell>
        <mxCell id="9Yya0px6hLWaVNeet3eG-217" value="" style="endArrow=none;html=1;rounded=0;exitX=0.5;exitY=0;exitDx=0;exitDy=0;entryX=0.5;entryY=1;entryDx=0;entryDy=0;" edge="1" parent="1" source="9Yya0px6hLWaVNeet3eG-214" target="9Yya0px6hLWaVNeet3eG-88">
          <mxGeometry relative="1" as="geometry">
            <mxPoint x="705" y="765" as="sourcePoint" />
            <mxPoint x="865" y="765" as="targetPoint" />
          </mxGeometry>
        </mxCell>
        <mxCell id="9Yya0px6hLWaVNeet3eG-218" value="occupation" style="ellipse;whiteSpace=wrap;html=1;align=center;fontStyle=4;" vertex="1" parent="1">
          <mxGeometry x="510" y="810" width="100" height="40" as="geometry" />
        </mxCell>
        <mxCell id="9Yya0px6hLWaVNeet3eG-219" value="relationship_to_child" style="ellipse;whiteSpace=wrap;html=1;align=center;fontStyle=4;" vertex="1" parent="1">
          <mxGeometry x="320" y="810" width="130" height="40" as="geometry" />
        </mxCell>
        <mxCell id="9Yya0px6hLWaVNeet3eG-223" value="" style="endArrow=none;html=1;rounded=0;entryX=0;entryY=0;entryDx=0;entryDy=0;" edge="1" parent="1" target="9Yya0px6hLWaVNeet3eG-218">
          <mxGeometry relative="1" as="geometry">
            <mxPoint x="480" y="800" as="sourcePoint" />
            <mxPoint x="560" y="830" as="targetPoint" />
          </mxGeometry>
        </mxCell>
        <mxCell id="9Yya0px6hLWaVNeet3eG-224" value="" style="endArrow=none;html=1;rounded=0;exitX=1;exitY=0;exitDx=0;exitDy=0;entryX=0.5;entryY=1;entryDx=0;entryDy=0;" edge="1" parent="1" source="9Yya0px6hLWaVNeet3eG-219">
          <mxGeometry relative="1" as="geometry">
            <mxPoint x="400" y="830" as="sourcePoint" />
            <mxPoint x="480" y="800.0000000000005" as="targetPoint" />
          </mxGeometry>
        </mxCell>
        <mxCell id="9Yya0px6hLWaVNeet3eG-225" value="account_id" style="ellipse;whiteSpace=wrap;html=1;align=center;fontStyle=4;" vertex="1" parent="1">
          <mxGeometry x="1180" y="-50" width="100" height="40" as="geometry" />
        </mxCell>
        <mxCell id="9Yya0px6hLWaVNeet3eG-226" value="patient_id" style="ellipse;whiteSpace=wrap;html=1;align=center;" vertex="1" parent="1">
          <mxGeometry x="1220" y="-10" width="100" height="40" as="geometry" />
        </mxCell>
        <mxCell id="9Yya0px6hLWaVNeet3eG-227" value="role" style="ellipse;whiteSpace=wrap;html=1;align=center;fontStyle=4;" vertex="1" parent="1">
          <mxGeometry x="1180" y="110" width="100" height="40" as="geometry" />
        </mxCell>
        <mxCell id="9Yya0px6hLWaVNeet3eG-228" value="creation_date" style="ellipse;whiteSpace=wrap;html=1;align=center;fontStyle=4;" vertex="1" parent="1">
          <mxGeometry x="1245" y="30" width="100" height="40" as="geometry" />
        </mxCell>
        <mxCell id="9Yya0px6hLWaVNeet3eG-229" value="address" style="ellipse;whiteSpace=wrap;html=1;align=center;fontStyle=4;" vertex="1" parent="1">
          <mxGeometry x="1220" y="70" width="100" height="40" as="geometry" />
        </mxCell>
        <mxCell id="9Yya0px6hLWaVNeet3eG-231" value="" style="endArrow=none;html=1;rounded=0;exitX=1;exitY=0.5;exitDx=0;exitDy=0;entryX=0;entryY=0.5;entryDx=0;entryDy=0;" edge="1" parent="1" source="9Yya0px6hLWaVNeet3eG-52" target="9Yya0px6hLWaVNeet3eG-227">
          <mxGeometry relative="1" as="geometry">
            <mxPoint x="1130" y="70" as="sourcePoint" />
            <mxPoint x="1290" y="70" as="targetPoint" />
          </mxGeometry>
        </mxCell>
        <mxCell id="9Yya0px6hLWaVNeet3eG-232" value="" style="endArrow=none;html=1;rounded=0;exitX=1;exitY=0.5;exitDx=0;exitDy=0;entryX=0;entryY=0.5;entryDx=0;entryDy=0;" edge="1" parent="1" source="9Yya0px6hLWaVNeet3eG-52" target="9Yya0px6hLWaVNeet3eG-229">
          <mxGeometry relative="1" as="geometry">
            <mxPoint x="1130" y="70" as="sourcePoint" />
            <mxPoint x="1290" y="70" as="targetPoint" />
          </mxGeometry>
        </mxCell>
        <mxCell id="9Yya0px6hLWaVNeet3eG-233" value="" style="endArrow=none;html=1;rounded=0;exitX=1;exitY=0.5;exitDx=0;exitDy=0;entryX=0;entryY=0.5;entryDx=0;entryDy=0;" edge="1" parent="1" source="9Yya0px6hLWaVNeet3eG-52" target="9Yya0px6hLWaVNeet3eG-228">
          <mxGeometry relative="1" as="geometry">
            <mxPoint x="1130" y="70" as="sourcePoint" />
            <mxPoint x="1290" y="70" as="targetPoint" />
          </mxGeometry>
        </mxCell>
        <mxCell id="9Yya0px6hLWaVNeet3eG-234" value="" style="endArrow=none;html=1;rounded=0;exitX=1;exitY=0.5;exitDx=0;exitDy=0;entryX=0;entryY=0.5;entryDx=0;entryDy=0;" edge="1" parent="1" source="9Yya0px6hLWaVNeet3eG-52" target="9Yya0px6hLWaVNeet3eG-226">
          <mxGeometry relative="1" as="geometry">
            <mxPoint x="1130" y="70" as="sourcePoint" />
            <mxPoint x="1290" y="70" as="targetPoint" />
          </mxGeometry>
        </mxCell>
        <mxCell id="9Yya0px6hLWaVNeet3eG-235" value="" style="endArrow=none;html=1;rounded=0;exitX=1;exitY=0.5;exitDx=0;exitDy=0;entryX=0;entryY=0.5;entryDx=0;entryDy=0;" edge="1" parent="1" source="9Yya0px6hLWaVNeet3eG-52" target="9Yya0px6hLWaVNeet3eG-225">
          <mxGeometry relative="1" as="geometry">
            <mxPoint x="1130" y="70" as="sourcePoint" />
            <mxPoint x="1290" y="70" as="targetPoint" />
          </mxGeometry>
        </mxCell>
        <mxCell id="9Yya0px6hLWaVNeet3eG-241" value="parent, child, neither" style="ellipse;shape=cloud;whiteSpace=wrap;html=1;align=center;" vertex="1" parent="1">
          <mxGeometry x="1500" y="70" width="200" height="100" as="geometry" />
        </mxCell>
        <mxCell id="9Yya0px6hLWaVNeet3eG-243" value="" style="endArrow=none;html=1;rounded=0;exitX=1;exitY=0.5;exitDx=0;exitDy=0;entryX=0;entryY=0.5;entryDx=0;entryDy=0;" edge="1" parent="1" source="9Yya0px6hLWaVNeet3eG-227">
          <mxGeometry relative="1" as="geometry">
            <mxPoint x="1170" y="130" as="sourcePoint" />
            <mxPoint x="1330" y="130" as="targetPoint" />
          </mxGeometry>
        </mxCell>
        <mxCell id="9Yya0px6hLWaVNeet3eG-244" value="" style="endArrow=none;html=1;rounded=0;entryX=1;entryY=0.5;entryDx=0;entryDy=0;exitX=0.16;exitY=0.55;exitDx=0;exitDy=0;exitPerimeter=0;" edge="1" parent="1" source="9Yya0px6hLWaVNeet3eG-241" target="9Yya0px6hLWaVNeet3eG-286">
          <mxGeometry relative="1" as="geometry">
            <mxPoint x="1170" y="130" as="sourcePoint" />
            <mxPoint x="1410" y="130" as="targetPoint" />
          </mxGeometry>
        </mxCell>
        <mxCell id="9Yya0px6hLWaVNeet3eG-247" value="doctor_id" style="ellipse;whiteSpace=wrap;html=1;align=center;" vertex="1" parent="1">
          <mxGeometry x="100" y="-100" width="100" height="40" as="geometry" />
        </mxCell>
        <mxCell id="9Yya0px6hLWaVNeet3eG-248" value="patient_id" style="ellipse;whiteSpace=wrap;html=1;align=center;" vertex="1" parent="1">
          <mxGeometry x="40" y="-140" width="100" height="40" as="geometry" />
        </mxCell>
        <mxCell id="9Yya0px6hLWaVNeet3eG-251" value="diagnosis_id" style="ellipse;whiteSpace=wrap;html=1;align=center;fontStyle=4;" vertex="1" parent="1">
          <mxGeometry x="-70" y="-140" width="100" height="40" as="geometry" />
        </mxCell>
        <mxCell id="9Yya0px6hLWaVNeet3eG-252" value="name" style="ellipse;whiteSpace=wrap;html=1;align=center;fontStyle=4;" vertex="1" parent="1">
          <mxGeometry x="-140" y="-100" width="100" height="40" as="geometry" />
        </mxCell>
        <mxCell id="9Yya0px6hLWaVNeet3eG-253" value="" style="endArrow=none;html=1;rounded=0;exitX=0;exitY=1;exitDx=0;exitDy=0;entryX=0.5;entryY=0;entryDx=0;entryDy=0;" edge="1" parent="1" source="9Yya0px6hLWaVNeet3eG-247" target="9Yya0px6hLWaVNeet3eG-101">
          <mxGeometry relative="1" as="geometry">
            <mxPoint x="-60" y="-40" as="sourcePoint" />
            <mxPoint x="100" y="-40" as="targetPoint" />
          </mxGeometry>
        </mxCell>
        <mxCell id="9Yya0px6hLWaVNeet3eG-254" value="" style="endArrow=none;html=1;rounded=0;exitX=0.5;exitY=1;exitDx=0;exitDy=0;entryX=0.5;entryY=0;entryDx=0;entryDy=0;" edge="1" parent="1" source="9Yya0px6hLWaVNeet3eG-248" target="9Yya0px6hLWaVNeet3eG-101">
          <mxGeometry relative="1" as="geometry">
            <mxPoint x="60" y="-90" as="sourcePoint" />
            <mxPoint x="100" y="-40" as="targetPoint" />
          </mxGeometry>
        </mxCell>
        <mxCell id="9Yya0px6hLWaVNeet3eG-255" value="" style="endArrow=none;html=1;rounded=0;exitX=0.5;exitY=1;exitDx=0;exitDy=0;entryX=0.5;entryY=0;entryDx=0;entryDy=0;" edge="1" parent="1" source="9Yya0px6hLWaVNeet3eG-251" target="9Yya0px6hLWaVNeet3eG-101">
          <mxGeometry relative="1" as="geometry">
            <mxPoint x="-60" y="-40" as="sourcePoint" />
            <mxPoint x="100" y="-40" as="targetPoint" />
          </mxGeometry>
        </mxCell>
        <mxCell id="9Yya0px6hLWaVNeet3eG-256" value="" style="endArrow=none;html=1;rounded=0;exitX=1;exitY=0.5;exitDx=0;exitDy=0;entryX=0.5;entryY=0;entryDx=0;entryDy=0;" edge="1" parent="1" source="9Yya0px6hLWaVNeet3eG-252" target="9Yya0px6hLWaVNeet3eG-101">
          <mxGeometry relative="1" as="geometry">
            <mxPoint x="-60" y="-40" as="sourcePoint" />
            <mxPoint x="100" y="-40" as="targetPoint" />
          </mxGeometry>
        </mxCell>
        <mxCell id="9Yya0px6hLWaVNeet3eG-257" value="" style="edgeStyle=orthogonalEdgeStyle;fontSize=12;html=1;endArrow=ERmandOne;rounded=0;exitX=0.5;exitY=1;exitDx=0;exitDy=0;entryX=0.25;entryY=0;entryDx=0;entryDy=0;" edge="1" parent="1" source="9Yya0px6hLWaVNeet3eG-109" target="9Yya0px6hLWaVNeet3eG-52">
          <mxGeometry width="100" height="100" relative="1" as="geometry">
            <mxPoint x="1050" y="-40" as="sourcePoint" />
            <mxPoint x="1090" y="20" as="targetPoint" />
          </mxGeometry>
        </mxCell>
        <mxCell id="9Yya0px6hLWaVNeet3eG-258" value="" style="edgeStyle=orthogonalEdgeStyle;fontSize=12;html=1;endArrow=ERzeroToMany;endFill=1;rounded=0;entryX=0.5;entryY=1;entryDx=0;entryDy=0;exitX=0.5;exitY=0;exitDx=0;exitDy=0;" edge="1" parent="1" source="9Yya0px6hLWaVNeet3eG-109" target="9Yya0px6hLWaVNeet3eG-108">
          <mxGeometry width="100" height="100" relative="1" as="geometry">
            <mxPoint x="1050" y="-40" as="sourcePoint" />
            <mxPoint x="1150" y="-140" as="targetPoint" />
          </mxGeometry>
        </mxCell>
        <mxCell id="9Yya0px6hLWaVNeet3eG-260" value="appt_id" style="ellipse;whiteSpace=wrap;html=1;align=center;fontStyle=4;" vertex="1" parent="1">
          <mxGeometry x="1050" y="-570" width="100" height="40" as="geometry" />
        </mxCell>
        <mxCell id="9Yya0px6hLWaVNeet3eG-261" value="" style="endArrow=none;html=1;rounded=0;exitX=0;exitY=0.5;exitDx=0;exitDy=0;entryX=1;entryY=0.5;entryDx=0;entryDy=0;" edge="1" parent="1" source="9Yya0px6hLWaVNeet3eG-260" target="9Yya0px6hLWaVNeet3eG-120">
          <mxGeometry relative="1" as="geometry">
            <mxPoint x="960" y="-440" as="sourcePoint" />
            <mxPoint x="1120" y="-440" as="targetPoint" />
          </mxGeometry>
        </mxCell>
        <mxCell id="9Yya0px6hLWaVNeet3eG-262" value="bill_id" style="ellipse;whiteSpace=wrap;html=1;align=center;fontStyle=4;" vertex="1" parent="1">
          <mxGeometry x="1040" y="-330" width="100" height="40" as="geometry" />
        </mxCell>
        <mxCell id="9Yya0px6hLWaVNeet3eG-264" value="payment_id" style="ellipse;whiteSpace=wrap;html=1;align=center;" vertex="1" parent="1">
          <mxGeometry x="1180" y="-190" width="100" height="40" as="geometry" />
        </mxCell>
        <mxCell id="9Yya0px6hLWaVNeet3eG-265" value="appt_id" style="ellipse;whiteSpace=wrap;html=1;align=center;" vertex="1" parent="1">
          <mxGeometry x="1180" y="-260" width="100" height="40" as="geometry" />
        </mxCell>
        <mxCell id="9Yya0px6hLWaVNeet3eG-266" value="&lt;span style=&quot;border-bottom: 1px dotted&quot;&gt;due_date&lt;/span&gt;" style="ellipse;whiteSpace=wrap;html=1;align=center;" vertex="1" parent="1">
          <mxGeometry x="1160" y="-320" width="100" height="40" as="geometry" />
        </mxCell>
        <mxCell id="9Yya0px6hLWaVNeet3eG-267" value="" style="endArrow=none;html=1;rounded=0;exitX=0.5;exitY=1;exitDx=0;exitDy=0;entryX=1;entryY=0;entryDx=0;entryDy=0;" edge="1" parent="1" source="9Yya0px6hLWaVNeet3eG-262" target="9Yya0px6hLWaVNeet3eG-108">
          <mxGeometry relative="1" as="geometry">
            <mxPoint x="1120" y="-190" as="sourcePoint" />
            <mxPoint x="1280" y="-190" as="targetPoint" />
          </mxGeometry>
        </mxCell>
        <mxCell id="9Yya0px6hLWaVNeet3eG-268" value="" style="endArrow=none;html=1;rounded=0;exitX=1;exitY=0;exitDx=0;exitDy=0;entryX=0;entryY=0.5;entryDx=0;entryDy=0;" edge="1" parent="1" source="9Yya0px6hLWaVNeet3eG-108" target="9Yya0px6hLWaVNeet3eG-266">
          <mxGeometry relative="1" as="geometry">
            <mxPoint x="1150" y="-190" as="sourcePoint" />
            <mxPoint x="1310" y="-190" as="targetPoint" />
          </mxGeometry>
        </mxCell>
        <mxCell id="9Yya0px6hLWaVNeet3eG-270" value="" style="endArrow=none;html=1;rounded=0;exitX=1;exitY=0;exitDx=0;exitDy=0;entryX=0;entryY=0.5;entryDx=0;entryDy=0;" edge="1" parent="1" source="9Yya0px6hLWaVNeet3eG-108" target="9Yya0px6hLWaVNeet3eG-265">
          <mxGeometry relative="1" as="geometry">
            <mxPoint x="1150" y="-190" as="sourcePoint" />
            <mxPoint x="1310" y="-190" as="targetPoint" />
          </mxGeometry>
        </mxCell>
        <mxCell id="9Yya0px6hLWaVNeet3eG-271" value="" style="endArrow=none;html=1;rounded=0;exitX=1;exitY=0;exitDx=0;exitDy=0;entryX=0;entryY=0.5;entryDx=0;entryDy=0;" edge="1" parent="1" source="9Yya0px6hLWaVNeet3eG-108" target="9Yya0px6hLWaVNeet3eG-264">
          <mxGeometry relative="1" as="geometry">
            <mxPoint x="1150" y="-190" as="sourcePoint" />
            <mxPoint x="1310" y="-190" as="targetPoint" />
          </mxGeometry>
        </mxCell>
        <mxCell id="9Yya0px6hLWaVNeet3eG-272" value="Room" style="whiteSpace=wrap;html=1;align=center;" vertex="1" parent="1">
          <mxGeometry x="365" y="-370" width="100" height="40" as="geometry" />
        </mxCell>
        <mxCell id="9Yya0px6hLWaVNeet3eG-273" value="Assigned To" style="shape=rhombus;perimeter=rhombusPerimeter;whiteSpace=wrap;html=1;align=center;" vertex="1" parent="1">
          <mxGeometry x="355" y="-220" width="120" height="60" as="geometry" />
        </mxCell>
        <mxCell id="9Yya0px6hLWaVNeet3eG-275" value="" style="edgeStyle=orthogonalEdgeStyle;fontSize=12;html=1;endArrow=ERone;endFill=1;rounded=0;entryX=0;entryY=0.5;entryDx=0;entryDy=0;exitX=0.5;exitY=1;exitDx=0;exitDy=0;" edge="1" parent="1" source="9Yya0px6hLWaVNeet3eG-273" target="9Yya0px6hLWaVNeet3eG-33">
          <mxGeometry width="100" height="100" relative="1" as="geometry">
            <mxPoint x="400" y="-110" as="sourcePoint" />
            <mxPoint x="500" y="-210" as="targetPoint" />
          </mxGeometry>
        </mxCell>
        <mxCell id="9Yya0px6hLWaVNeet3eG-276" value="" style="fontSize=12;html=1;endArrow=ERoneToMany;rounded=0;entryX=0.5;entryY=1;entryDx=0;entryDy=0;exitX=0.5;exitY=0;exitDx=0;exitDy=0;" edge="1" parent="1" source="9Yya0px6hLWaVNeet3eG-273" target="9Yya0px6hLWaVNeet3eG-272">
          <mxGeometry width="100" height="100" relative="1" as="geometry">
            <mxPoint x="400" y="-110" as="sourcePoint" />
            <mxPoint x="500" y="-210" as="targetPoint" />
          </mxGeometry>
        </mxCell>
        <mxCell id="9Yya0px6hLWaVNeet3eG-278" value="room_id" style="ellipse;whiteSpace=wrap;html=1;align=center;fontStyle=4;" vertex="1" parent="1">
          <mxGeometry x="330" y="-520" width="100" height="40" as="geometry" />
        </mxCell>
        <mxCell id="9Yya0px6hLWaVNeet3eG-279" value="&lt;span style=&quot;border-bottom: 1px dotted&quot;&gt;number&lt;/span&gt;" style="ellipse;whiteSpace=wrap;html=1;align=center;" vertex="1" parent="1">
          <mxGeometry x="250" y="-450" width="100" height="40" as="geometry" />
        </mxCell>
        <mxCell id="9Yya0px6hLWaVNeet3eG-280" value="&lt;span style=&quot;border-bottom: 1px dotted&quot;&gt;nurse_id&lt;/span&gt;" style="ellipse;whiteSpace=wrap;html=1;align=center;" vertex="1" parent="1">
          <mxGeometry x="450" y="-500" width="100" height="40" as="geometry" />
        </mxCell>
        <mxCell id="9Yya0px6hLWaVNeet3eG-282" value="" style="endArrow=none;html=1;rounded=0;exitX=0;exitY=0.5;exitDx=0;exitDy=0;entryX=0.5;entryY=0;entryDx=0;entryDy=0;" edge="1" parent="1" source="9Yya0px6hLWaVNeet3eG-280" target="9Yya0px6hLWaVNeet3eG-272">
          <mxGeometry relative="1" as="geometry">
            <mxPoint x="360" y="-300" as="sourcePoint" />
            <mxPoint x="520" y="-300" as="targetPoint" />
          </mxGeometry>
        </mxCell>
        <mxCell id="9Yya0px6hLWaVNeet3eG-283" value="" style="endArrow=none;html=1;rounded=0;exitX=0.5;exitY=1;exitDx=0;exitDy=0;entryX=0.5;entryY=0;entryDx=0;entryDy=0;" edge="1" parent="1" source="9Yya0px6hLWaVNeet3eG-278" target="9Yya0px6hLWaVNeet3eG-272">
          <mxGeometry relative="1" as="geometry">
            <mxPoint x="360" y="-300" as="sourcePoint" />
            <mxPoint x="520" y="-300" as="targetPoint" />
          </mxGeometry>
        </mxCell>
        <mxCell id="9Yya0px6hLWaVNeet3eG-284" value="" style="endArrow=none;html=1;rounded=0;exitX=1;exitY=0.5;exitDx=0;exitDy=0;entryX=0.5;entryY=0;entryDx=0;entryDy=0;" edge="1" parent="1" source="9Yya0px6hLWaVNeet3eG-279" target="9Yya0px6hLWaVNeet3eG-272">
          <mxGeometry relative="1" as="geometry">
            <mxPoint x="360" y="-300" as="sourcePoint" />
            <mxPoint x="520" y="-300" as="targetPoint" />
          </mxGeometry>
        </mxCell>
        <mxCell id="9Yya0px6hLWaVNeet3eG-285" value="Parent" style="shape=ext;margin=3;double=1;whiteSpace=wrap;html=1;align=center;" vertex="1" parent="1">
          <mxGeometry x="430" y="760" width="100" height="40" as="geometry" />
        </mxCell>
        <mxCell id="9Yya0px6hLWaVNeet3eG-286" value="Roles" style="shape=associativeEntity;whiteSpace=wrap;html=1;align=center;" vertex="1" parent="1">
          <mxGeometry x="1330" y="110" width="110" height="40" as="geometry" />
        </mxCell>
        <mxCell id="9Yya0px6hLWaVNeet3eG-289" value="Department" style="whiteSpace=wrap;html=1;align=center;" vertex="1" parent="1">
          <mxGeometry x="-20" y="-370" width="90" height="40" as="geometry" />
        </mxCell>
        <mxCell id="9Yya0px6hLWaVNeet3eG-290" value="Assigned To" style="shape=rhombus;perimeter=rhombusPerimeter;whiteSpace=wrap;html=1;align=center;" vertex="1" parent="1">
          <mxGeometry x="140" y="-380" width="120" height="60" as="geometry" />
        </mxCell>
        <mxCell id="9Yya0px6hLWaVNeet3eG-291" value="" style="edgeStyle=entityRelationEdgeStyle;fontSize=12;html=1;endArrow=ERoneToMany;rounded=0;entryX=0;entryY=0.5;entryDx=0;entryDy=0;exitX=1;exitY=0.5;exitDx=0;exitDy=0;" edge="1" parent="1" source="9Yya0px6hLWaVNeet3eG-290" target="9Yya0px6hLWaVNeet3eG-272">
          <mxGeometry width="100" height="100" relative="1" as="geometry">
            <mxPoint x="160" y="-180" as="sourcePoint" />
            <mxPoint x="260" y="-280" as="targetPoint" />
          </mxGeometry>
        </mxCell>
        <mxCell id="9Yya0px6hLWaVNeet3eG-292" value="" style="fontSize=12;html=1;endArrow=ERmandOne;rounded=0;entryX=1;entryY=0.5;entryDx=0;entryDy=0;exitX=0;exitY=0.5;exitDx=0;exitDy=0;" edge="1" parent="1" source="9Yya0px6hLWaVNeet3eG-290" target="9Yya0px6hLWaVNeet3eG-289">
          <mxGeometry width="100" height="100" relative="1" as="geometry">
            <mxPoint x="160" y="-180" as="sourcePoint" />
            <mxPoint x="260" y="-280" as="targetPoint" />
          </mxGeometry>
        </mxCell>
        <mxCell id="9Yya0px6hLWaVNeet3eG-294" value="&lt;span style=&quot;border-bottom: 1px dotted&quot;&gt;phone_number&lt;/span&gt;" style="ellipse;whiteSpace=wrap;html=1;align=center;" vertex="1" parent="1">
          <mxGeometry x="-160" y="-340" width="100" height="40" as="geometry" />
        </mxCell>
        <mxCell id="9Yya0px6hLWaVNeet3eG-295" value="name" style="ellipse;whiteSpace=wrap;html=1;align=center;" vertex="1" parent="1">
          <mxGeometry x="-150" y="-450" width="100" height="40" as="geometry" />
        </mxCell>
        <mxCell id="9Yya0px6hLWaVNeet3eG-296" value="dept_id" style="ellipse;whiteSpace=wrap;html=1;align=center;fontStyle=4;" vertex="1" parent="1">
          <mxGeometry x="-160" y="-400" width="100" height="40" as="geometry" />
        </mxCell>
        <mxCell id="9Yya0px6hLWaVNeet3eG-297" value="&lt;span style=&quot;border-bottom: 1px dotted&quot;&gt;dept_id&lt;/span&gt;" style="ellipse;whiteSpace=wrap;html=1;align=center;" vertex="1" parent="1">
          <mxGeometry x="470" y="-430" width="100" height="40" as="geometry" />
        </mxCell>
        <mxCell id="9Yya0px6hLWaVNeet3eG-298" value="" style="endArrow=none;html=1;rounded=0;exitX=0.5;exitY=0;exitDx=0;exitDy=0;entryX=0;entryY=0.5;entryDx=0;entryDy=0;" edge="1" parent="1" source="9Yya0px6hLWaVNeet3eG-272" target="9Yya0px6hLWaVNeet3eG-297">
          <mxGeometry relative="1" as="geometry">
            <mxPoint x="440" y="-300" as="sourcePoint" />
            <mxPoint x="600" y="-300" as="targetPoint" />
          </mxGeometry>
        </mxCell>
        <mxCell id="9Yya0px6hLWaVNeet3eG-299" value="" style="endArrow=none;html=1;rounded=0;exitX=1;exitY=0.5;exitDx=0;exitDy=0;entryX=0;entryY=0.5;entryDx=0;entryDy=0;" edge="1" parent="1" source="9Yya0px6hLWaVNeet3eG-294" target="9Yya0px6hLWaVNeet3eG-289">
          <mxGeometry relative="1" as="geometry">
            <mxPoint x="-110" y="-300" as="sourcePoint" />
            <mxPoint x="50" y="-300" as="targetPoint" />
          </mxGeometry>
        </mxCell>
        <mxCell id="9Yya0px6hLWaVNeet3eG-300" value="" style="endArrow=none;html=1;rounded=0;exitX=1;exitY=0.5;exitDx=0;exitDy=0;entryX=0;entryY=0.5;entryDx=0;entryDy=0;" edge="1" parent="1" source="9Yya0px6hLWaVNeet3eG-296" target="9Yya0px6hLWaVNeet3eG-289">
          <mxGeometry relative="1" as="geometry">
            <mxPoint x="-110" y="-300" as="sourcePoint" />
            <mxPoint x="50" y="-300" as="targetPoint" />
          </mxGeometry>
        </mxCell>
        <mxCell id="9Yya0px6hLWaVNeet3eG-301" value="" style="endArrow=none;html=1;rounded=0;exitX=1;exitY=0.5;exitDx=0;exitDy=0;entryX=0;entryY=0.5;entryDx=0;entryDy=0;" edge="1" parent="1" source="9Yya0px6hLWaVNeet3eG-295" target="9Yya0px6hLWaVNeet3eG-289">
          <mxGeometry relative="1" as="geometry">
            <mxPoint x="-110" y="-300" as="sourcePoint" />
            <mxPoint x="50" y="-300" as="targetPoint" />
          </mxGeometry>
        </mxCell>
        <mxCell id="9Yya0px6hLWaVNeet3eG-302" value="Performs" style="shape=rhombus;perimeter=rhombusPerimeter;whiteSpace=wrap;html=1;align=center;" vertex="1" parent="1">
          <mxGeometry x="665" y="-230" width="120" height="60" as="geometry" />
        </mxCell>
        <mxCell id="9Yya0px6hLWaVNeet3eG-303" value="Specialization" style="whiteSpace=wrap;html=1;align=center;" vertex="1" parent="1">
          <mxGeometry x="677.5" y="-320" width="100" height="40" as="geometry" />
        </mxCell>
        <mxCell id="9Yya0px6hLWaVNeet3eG-304" value="" style="edgeStyle=orthogonalEdgeStyle;fontSize=12;html=1;endArrow=ERzeroToMany;endFill=1;rounded=0;entryX=1;entryY=0;entryDx=0;entryDy=0;exitX=0.5;exitY=1;exitDx=0;exitDy=0;" edge="1" parent="1" source="9Yya0px6hLWaVNeet3eG-302" target="9Yya0px6hLWaVNeet3eG-33">
          <mxGeometry width="100" height="100" relative="1" as="geometry">
            <mxPoint x="720" y="-50" as="sourcePoint" />
            <mxPoint x="820" y="-150" as="targetPoint" />
            <Array as="points">
              <mxPoint x="725" y="-40" />
            </Array>
          </mxGeometry>
        </mxCell>
        <mxCell id="9Yya0px6hLWaVNeet3eG-305" value="" style="fontSize=12;html=1;endArrow=ERoneToMany;rounded=0;exitX=0.5;exitY=0;exitDx=0;exitDy=0;entryX=0.5;entryY=1;entryDx=0;entryDy=0;" edge="1" parent="1" source="9Yya0px6hLWaVNeet3eG-302" target="9Yya0px6hLWaVNeet3eG-303">
          <mxGeometry width="100" height="100" relative="1" as="geometry">
            <mxPoint x="720" y="-160" as="sourcePoint" />
            <mxPoint x="820" y="-260" as="targetPoint" />
          </mxGeometry>
        </mxCell>
        <mxCell id="9Yya0px6hLWaVNeet3eG-309" value="" style="edgeStyle=orthogonalEdgeStyle;fontSize=12;html=1;endArrow=ERzeroToMany;endFill=1;rounded=0;exitX=0.5;exitY=1;exitDx=0;exitDy=0;entryX=1;entryY=0;entryDx=0;entryDy=0;" edge="1" parent="1" source="9Yya0px6hLWaVNeet3eG-302" target="9Yya0px6hLWaVNeet3eG-15">
          <mxGeometry width="100" height="100" relative="1" as="geometry">
            <mxPoint x="790" y="-150" as="sourcePoint" />
            <mxPoint x="830" y="20" as="targetPoint" />
            <Array as="points">
              <mxPoint x="725" y="-40" />
              <mxPoint x="830" y="-40" />
              <mxPoint x="830" y="70" />
            </Array>
          </mxGeometry>
        </mxCell>
        <mxCell id="9Yya0px6hLWaVNeet3eG-311" value="specialization_id" style="ellipse;whiteSpace=wrap;html=1;align=center;fontStyle=4;" vertex="1" parent="1">
          <mxGeometry x="677.5" y="-440" width="100" height="40" as="geometry" />
        </mxCell>
        <mxCell id="9Yya0px6hLWaVNeet3eG-312" value="&lt;span style=&quot;border-bottom: 1px dotted&quot;&gt;name&lt;/span&gt;" style="ellipse;whiteSpace=wrap;html=1;align=center;" vertex="1" parent="1">
          <mxGeometry x="582.5" y="-390" width="100" height="40" as="geometry" />
        </mxCell>
        <mxCell id="9Yya0px6hLWaVNeet3eG-315" value="description" style="ellipse;whiteSpace=wrap;html=1;align=center;fontStyle=4;" vertex="1" parent="1">
          <mxGeometry x="777.5" y="-390" width="100" height="40" as="geometry" />
        </mxCell>
        <mxCell id="9Yya0px6hLWaVNeet3eG-316" value="" style="endArrow=none;html=1;rounded=0;entryX=0.5;entryY=1;entryDx=0;entryDy=0;exitX=0.5;exitY=0;exitDx=0;exitDy=0;" edge="1" parent="1" source="9Yya0px6hLWaVNeet3eG-303" target="9Yya0px6hLWaVNeet3eG-311">
          <mxGeometry relative="1" as="geometry">
            <mxPoint x="672.5" y="-320" as="sourcePoint" />
            <mxPoint x="722.5" y="-390" as="targetPoint" />
          </mxGeometry>
        </mxCell>
        <mxCell id="9Yya0px6hLWaVNeet3eG-317" value="" style="endArrow=none;html=1;rounded=0;entryX=0;entryY=0.5;entryDx=0;entryDy=0;exitX=0.5;exitY=0;exitDx=0;exitDy=0;" edge="1" parent="1" source="9Yya0px6hLWaVNeet3eG-303" target="9Yya0px6hLWaVNeet3eG-315">
          <mxGeometry relative="1" as="geometry">
            <mxPoint x="672.5" y="-320" as="sourcePoint" />
            <mxPoint x="832.5" y="-320" as="targetPoint" />
          </mxGeometry>
        </mxCell>
        <mxCell id="9Yya0px6hLWaVNeet3eG-318" value="" style="endArrow=none;html=1;rounded=0;exitX=1;exitY=0.5;exitDx=0;exitDy=0;entryX=0.5;entryY=0;entryDx=0;entryDy=0;" edge="1" parent="1" source="9Yya0px6hLWaVNeet3eG-312" target="9Yya0px6hLWaVNeet3eG-303">
          <mxGeometry relative="1" as="geometry">
            <mxPoint x="672.5" y="-320" as="sourcePoint" />
            <mxPoint x="732.5" y="-340" as="targetPoint" />
          </mxGeometry>
        </mxCell>
        <mxCell id="9Yya0px6hLWaVNeet3eG-321" value="Prescription" style="shape=ext;margin=3;double=1;whiteSpace=wrap;html=1;align=center;" vertex="1" parent="1">
          <mxGeometry x="280" y="570" width="100" height="40" as="geometry" />
        </mxCell>
        <mxCell id="9Yya0px6hLWaVNeet3eG-323" value="" style="fontSize=12;html=1;endArrow=ERzeroToMany;endFill=1;rounded=0;entryX=1;entryY=0.5;entryDx=0;entryDy=0;exitX=0;exitY=0.5;exitDx=0;exitDy=0;edgeStyle=orthogonalEdgeStyle;" edge="1" parent="1" source="9Yya0px6hLWaVNeet3eG-322" target="9Yya0px6hLWaVNeet3eG-321">
          <mxGeometry width="100" height="100" relative="1" as="geometry">
            <mxPoint x="420" y="470" as="sourcePoint" />
            <mxPoint x="320" y="570" as="targetPoint" />
          </mxGeometry>
        </mxCell>
        <mxCell id="9Yya0px6hLWaVNeet3eG-326" value="" style="fontSize=12;html=1;endArrow=ERmandOne;rounded=0;exitX=1;exitY=0.5;exitDx=0;exitDy=0;entryX=0.25;entryY=1;entryDx=0;entryDy=0;edgeStyle=orthogonalEdgeStyle;" edge="1" parent="1" source="9Yya0px6hLWaVNeet3eG-322" target="9Yya0px6hLWaVNeet3eG-14">
          <mxGeometry width="100" height="100" relative="1" as="geometry">
            <mxPoint x="450" y="400" as="sourcePoint" />
            <mxPoint x="400" y="490" as="targetPoint" />
          </mxGeometry>
        </mxCell>
        <mxCell id="9Yya0px6hLWaVNeet3eG-331" value="presc_id" style="ellipse;whiteSpace=wrap;html=1;align=center;fontStyle=4;" vertex="1" parent="1">
          <mxGeometry x="140" y="620" width="100" height="40" as="geometry" />
        </mxCell>
        <mxCell id="9Yya0px6hLWaVNeet3eG-332" value="&lt;span style=&quot;border-bottom: 1px dotted&quot;&gt;doctor_id&lt;/span&gt;" style="ellipse;whiteSpace=wrap;html=1;align=center;" vertex="1" parent="1">
          <mxGeometry x="140" y="540" width="100" height="40" as="geometry" />
        </mxCell>
        <mxCell id="9Yya0px6hLWaVNeet3eG-333" value="&lt;span style=&quot;border-bottom: 1px dotted&quot;&gt;patient_id&lt;/span&gt;" style="ellipse;whiteSpace=wrap;html=1;align=center;" vertex="1" parent="1">
          <mxGeometry x="180" y="660" width="100" height="40" as="geometry" />
        </mxCell>
        <mxCell id="9Yya0px6hLWaVNeet3eG-334" value="&lt;span style=&quot;border-bottom: 1px dotted&quot;&gt;medication_id&lt;/span&gt;" style="ellipse;whiteSpace=wrap;html=1;align=center;" vertex="1" parent="1">
          <mxGeometry x="110" y="580" width="100" height="40" as="geometry" />
        </mxCell>
        <mxCell id="9Yya0px6hLWaVNeet3eG-335" value="Dosage" style="ellipse;whiteSpace=wrap;html=1;align=center;fontStyle=4;" vertex="1" parent="1">
          <mxGeometry x="180" y="500" width="100" height="40" as="geometry" />
        </mxCell>
        <mxCell id="9Yya0px6hLWaVNeet3eG-336" value="" style="endArrow=none;html=1;rounded=0;exitX=1;exitY=0;exitDx=0;exitDy=0;entryX=0;entryY=0.5;entryDx=0;entryDy=0;" edge="1" parent="1" source="9Yya0px6hLWaVNeet3eG-333" target="9Yya0px6hLWaVNeet3eG-321">
          <mxGeometry relative="1" as="geometry">
            <mxPoint x="220" y="560" as="sourcePoint" />
            <mxPoint x="380" y="560" as="targetPoint" />
          </mxGeometry>
        </mxCell>
        <mxCell id="9Yya0px6hLWaVNeet3eG-337" value="" style="endArrow=none;html=1;rounded=0;exitX=1;exitY=0.5;exitDx=0;exitDy=0;entryX=0;entryY=0.5;entryDx=0;entryDy=0;" edge="1" parent="1" source="9Yya0px6hLWaVNeet3eG-331" target="9Yya0px6hLWaVNeet3eG-321">
          <mxGeometry relative="1" as="geometry">
            <mxPoint x="220" y="560" as="sourcePoint" />
            <mxPoint x="380" y="560" as="targetPoint" />
          </mxGeometry>
        </mxCell>
        <mxCell id="9Yya0px6hLWaVNeet3eG-338" value="" style="endArrow=none;html=1;rounded=0;exitX=1;exitY=0.5;exitDx=0;exitDy=0;entryX=0;entryY=0.5;entryDx=0;entryDy=0;" edge="1" parent="1" source="9Yya0px6hLWaVNeet3eG-334" target="9Yya0px6hLWaVNeet3eG-321">
          <mxGeometry relative="1" as="geometry">
            <mxPoint x="220" y="560" as="sourcePoint" />
            <mxPoint x="380" y="560" as="targetPoint" />
          </mxGeometry>
        </mxCell>
        <mxCell id="9Yya0px6hLWaVNeet3eG-339" value="" style="endArrow=none;html=1;rounded=0;exitX=1;exitY=0.5;exitDx=0;exitDy=0;entryX=0;entryY=0.5;entryDx=0;entryDy=0;" edge="1" parent="1" source="9Yya0px6hLWaVNeet3eG-332" target="9Yya0px6hLWaVNeet3eG-321">
          <mxGeometry relative="1" as="geometry">
            <mxPoint x="220" y="560" as="sourcePoint" />
            <mxPoint x="380" y="560" as="targetPoint" />
          </mxGeometry>
        </mxCell>
        <mxCell id="9Yya0px6hLWaVNeet3eG-340" value="" style="endArrow=none;html=1;rounded=0;exitX=1;exitY=1;exitDx=0;exitDy=0;entryX=0;entryY=0.5;entryDx=0;entryDy=0;" edge="1" parent="1" source="9Yya0px6hLWaVNeet3eG-335" target="9Yya0px6hLWaVNeet3eG-321">
          <mxGeometry relative="1" as="geometry">
            <mxPoint x="220" y="560" as="sourcePoint" />
            <mxPoint x="380" y="560" as="targetPoint" />
          </mxGeometry>
        </mxCell>
        <mxCell id="9Yya0px6hLWaVNeet3eG-347" value="Includes" style="shape=rhombus;perimeter=rhombusPerimeter;whiteSpace=wrap;html=1;align=center;" vertex="1" parent="1">
          <mxGeometry x="180" y="755" width="120" height="60" as="geometry" />
        </mxCell>
        <mxCell id="9Yya0px6hLWaVNeet3eG-348" value="Medication" style="whiteSpace=wrap;html=1;align=center;" vertex="1" parent="1">
          <mxGeometry x="10" y="890" width="100" height="40" as="geometry" />
        </mxCell>
        <mxCell id="9Yya0px6hLWaVNeet3eG-349" value="" style="edgeStyle=entityRelationEdgeStyle;fontSize=12;html=1;endArrow=ERmandOne;rounded=0;entryX=1;entryY=0.5;entryDx=0;entryDy=0;exitX=0;exitY=0.5;exitDx=0;exitDy=0;" edge="1" parent="1" source="9Yya0px6hLWaVNeet3eG-347" target="9Yya0px6hLWaVNeet3eG-348">
          <mxGeometry width="100" height="100" relative="1" as="geometry">
            <mxPoint x="140" y="780" as="sourcePoint" />
            <mxPoint x="240" y="680" as="targetPoint" />
          </mxGeometry>
        </mxCell>
        <mxCell id="9Yya0px6hLWaVNeet3eG-350" value="" style="fontSize=12;html=1;endArrow=ERzeroToMany;endFill=1;rounded=0;entryX=0.5;entryY=1;entryDx=0;entryDy=0;edgeStyle=orthogonalEdgeStyle;" edge="1" parent="1" source="9Yya0px6hLWaVNeet3eG-347" target="9Yya0px6hLWaVNeet3eG-321">
          <mxGeometry width="100" height="100" relative="1" as="geometry">
            <mxPoint x="288" y="740" as="sourcePoint" />
            <mxPoint x="240" y="680" as="targetPoint" />
            <Array as="points">
              <mxPoint x="330" y="785" />
            </Array>
          </mxGeometry>
        </mxCell>
        <mxCell id="9Yya0px6hLWaVNeet3eG-351" value="medication_id" style="ellipse;whiteSpace=wrap;html=1;align=center;fontStyle=4;" vertex="1" parent="1">
          <mxGeometry x="-100" y="940" width="100" height="40" as="geometry" />
        </mxCell>
        <mxCell id="9Yya0px6hLWaVNeet3eG-354" value="&lt;span style=&quot;border-bottom: 1px dotted&quot;&gt;instructions&lt;/span&gt;" style="ellipse;whiteSpace=wrap;html=1;align=center;" vertex="1" parent="1">
          <mxGeometry x="-110" y="815" width="100" height="40" as="geometry" />
        </mxCell>
        <mxCell id="9Yya0px6hLWaVNeet3eG-355" value="&lt;span style=&quot;border-bottom: 1px dotted&quot;&gt;name&lt;/span&gt;" style="ellipse;whiteSpace=wrap;html=1;align=center;" vertex="1" parent="1">
          <mxGeometry x="-130" y="870" width="100" height="40" as="geometry" />
        </mxCell>
        <mxCell id="9Yya0px6hLWaVNeet3eG-356" value="" style="endArrow=none;html=1;rounded=0;exitX=1;exitY=0.5;exitDx=0;exitDy=0;entryX=0;entryY=0.5;entryDx=0;entryDy=0;" edge="1" parent="1" source="9Yya0px6hLWaVNeet3eG-351" target="9Yya0px6hLWaVNeet3eG-348">
          <mxGeometry relative="1" as="geometry">
            <mxPoint x="-30" y="870" as="sourcePoint" />
            <mxPoint x="130" y="870" as="targetPoint" />
          </mxGeometry>
        </mxCell>
        <mxCell id="9Yya0px6hLWaVNeet3eG-357" value="" style="endArrow=none;html=1;rounded=0;exitX=1;exitY=0.5;exitDx=0;exitDy=0;entryX=0;entryY=0.5;entryDx=0;entryDy=0;" edge="1" parent="1" source="9Yya0px6hLWaVNeet3eG-355" target="9Yya0px6hLWaVNeet3eG-348">
          <mxGeometry relative="1" as="geometry">
            <mxPoint x="-30" y="870" as="sourcePoint" />
            <mxPoint x="130" y="870" as="targetPoint" />
          </mxGeometry>
        </mxCell>
        <mxCell id="9Yya0px6hLWaVNeet3eG-358" value="" style="endArrow=none;html=1;rounded=0;exitX=1;exitY=0.5;exitDx=0;exitDy=0;entryX=0;entryY=0.5;entryDx=0;entryDy=0;" edge="1" parent="1" source="9Yya0px6hLWaVNeet3eG-354" target="9Yya0px6hLWaVNeet3eG-348">
          <mxGeometry relative="1" as="geometry">
            <mxPoint x="-30" y="870" as="sourcePoint" />
            <mxPoint x="130" y="870" as="targetPoint" />
          </mxGeometry>
        </mxCell>
        <mxCell id="9Yya0px6hLWaVNeet3eG-359" value="Has" style="shape=rhombus;perimeter=rhombusPerimeter;whiteSpace=wrap;html=1;align=center;" vertex="1" parent="1">
          <mxGeometry x="1310" y="-110" width="80" height="40" as="geometry" />
        </mxCell>
        <mxCell id="9Yya0px6hLWaVNeet3eG-360" value="Payment" style="shape=ext;margin=3;double=1;whiteSpace=wrap;html=1;align=center;" vertex="1" parent="1">
          <mxGeometry x="1440" y="-110" width="100" height="40" as="geometry" />
        </mxCell>
        <mxCell id="9Yya0px6hLWaVNeet3eG-361" value="" style="fontSize=12;html=1;endArrow=ERzeroToMany;endFill=1;rounded=0;entryX=0;entryY=0.5;entryDx=0;entryDy=0;exitX=1;exitY=0.5;exitDx=0;exitDy=0;" edge="1" parent="1" source="9Yya0px6hLWaVNeet3eG-359" target="9Yya0px6hLWaVNeet3eG-360">
          <mxGeometry width="100" height="100" relative="1" as="geometry">
            <mxPoint x="1340" y="-20" as="sourcePoint" />
            <mxPoint x="1440" y="-120" as="targetPoint" />
          </mxGeometry>
        </mxCell>
        <mxCell id="9Yya0px6hLWaVNeet3eG-362" value="" style="edgeStyle=orthogonalEdgeStyle;fontSize=12;html=1;endArrow=ERmandOne;rounded=0;entryX=0.75;entryY=0;entryDx=0;entryDy=0;exitX=0;exitY=0.5;exitDx=0;exitDy=0;" edge="1" parent="1" source="9Yya0px6hLWaVNeet3eG-359" target="9Yya0px6hLWaVNeet3eG-52">
          <mxGeometry width="100" height="100" relative="1" as="geometry">
            <mxPoint x="1120" y="-20" as="sourcePoint" />
            <mxPoint x="1220" y="-120" as="targetPoint" />
          </mxGeometry>
        </mxCell>
        <mxCell id="9Yya0px6hLWaVNeet3eG-363" value="card number" style="ellipse;whiteSpace=wrap;html=1;align=center;fontStyle=4;" vertex="1" parent="1">
          <mxGeometry x="1580" y="-50" width="100" height="40" as="geometry" />
        </mxCell>
        <mxCell id="9Yya0px6hLWaVNeet3eG-364" value="payment_id" style="ellipse;whiteSpace=wrap;html=1;align=center;fontStyle=4;" vertex="1" parent="1">
          <mxGeometry x="1620" y="-100" width="100" height="40" as="geometry" />
        </mxCell>
        <mxCell id="9Yya0px6hLWaVNeet3eG-365" value="full name" style="ellipse;whiteSpace=wrap;html=1;align=center;fontStyle=4;" vertex="1" parent="1">
          <mxGeometry x="1580" y="-160" width="100" height="40" as="geometry" />
        </mxCell>
        <mxCell id="9Yya0px6hLWaVNeet3eG-367" value="" style="endArrow=none;html=1;rounded=0;exitX=1;exitY=0.5;exitDx=0;exitDy=0;entryX=0;entryY=0.5;entryDx=0;entryDy=0;" edge="1" parent="1" source="9Yya0px6hLWaVNeet3eG-360" target="9Yya0px6hLWaVNeet3eG-363">
          <mxGeometry relative="1" as="geometry">
            <mxPoint x="1550" y="-90" as="sourcePoint" />
            <mxPoint x="1710" y="-90" as="targetPoint" />
          </mxGeometry>
        </mxCell>
        <mxCell id="9Yya0px6hLWaVNeet3eG-368" value="" style="endArrow=none;html=1;rounded=0;exitX=1;exitY=0.5;exitDx=0;exitDy=0;entryX=0;entryY=0.5;entryDx=0;entryDy=0;" edge="1" parent="1" source="9Yya0px6hLWaVNeet3eG-360" target="9Yya0px6hLWaVNeet3eG-364">
          <mxGeometry relative="1" as="geometry">
            <mxPoint x="1550" y="-90" as="sourcePoint" />
            <mxPoint x="1710" y="-90" as="targetPoint" />
          </mxGeometry>
        </mxCell>
        <mxCell id="9Yya0px6hLWaVNeet3eG-369" value="" style="endArrow=none;html=1;rounded=0;exitX=1;exitY=0.5;exitDx=0;exitDy=0;entryX=0;entryY=0.5;entryDx=0;entryDy=0;" edge="1" parent="1" source="9Yya0px6hLWaVNeet3eG-360" target="9Yya0px6hLWaVNeet3eG-365">
          <mxGeometry relative="1" as="geometry">
            <mxPoint x="1550" y="-90" as="sourcePoint" />
            <mxPoint x="1710" y="-90" as="targetPoint" />
          </mxGeometry>
        </mxCell>
        <mxCell id="9Yya0px6hLWaVNeet3eG-370" value="Allergies" style="whiteSpace=wrap;html=1;align=center;" vertex="1" parent="1">
          <mxGeometry x="200" y="140" width="100" height="40" as="geometry" />
        </mxCell>
        <mxCell id="9Yya0px6hLWaVNeet3eG-371" value="Has" style="shape=rhombus;perimeter=rhombusPerimeter;whiteSpace=wrap;html=1;align=center;" vertex="1" parent="1">
          <mxGeometry x="260" y="240" width="70" height="30" as="geometry" />
        </mxCell>
        <mxCell id="9Yya0px6hLWaVNeet3eG-372" value="" style="edgeStyle=orthogonalEdgeStyle;fontSize=12;html=1;endArrow=ERzeroToMany;endFill=1;rounded=0;entryX=0.5;entryY=1;entryDx=0;entryDy=0;exitX=0.5;exitY=0;exitDx=0;exitDy=0;" edge="1" parent="1" source="9Yya0px6hLWaVNeet3eG-371" target="9Yya0px6hLWaVNeet3eG-370">
          <mxGeometry width="100" height="100" relative="1" as="geometry">
            <mxPoint x="320" y="310" as="sourcePoint" />
            <mxPoint x="420" y="210" as="targetPoint" />
          </mxGeometry>
        </mxCell>
        <mxCell id="9Yya0px6hLWaVNeet3eG-373" value="" style="edgeStyle=orthogonalEdgeStyle;fontSize=12;html=1;endArrow=ERzeroToMany;endFill=1;rounded=0;entryX=0;entryY=0.25;entryDx=0;entryDy=0;exitX=0.5;exitY=1;exitDx=0;exitDy=0;" edge="1" parent="1" source="9Yya0px6hLWaVNeet3eG-371" target="9Yya0px6hLWaVNeet3eG-14">
          <mxGeometry width="100" height="100" relative="1" as="geometry">
            <mxPoint x="300" y="280" as="sourcePoint" />
            <mxPoint x="460" y="300" as="targetPoint" />
            <Array as="points">
              <mxPoint x="295" y="320" />
              <mxPoint x="500" y="320" />
            </Array>
          </mxGeometry>
        </mxCell>
        <mxCell id="9Yya0px6hLWaVNeet3eG-374" value="severity" style="ellipse;whiteSpace=wrap;html=1;align=center;fontStyle=4;" vertex="1" parent="1">
          <mxGeometry x="40" y="140" width="100" height="40" as="geometry" />
        </mxCell>
        <mxCell id="9Yya0px6hLWaVNeet3eG-375" value="allergen" style="ellipse;whiteSpace=wrap;html=1;align=center;fontStyle=4;" vertex="1" parent="1">
          <mxGeometry x="80" y="180" width="100" height="40" as="geometry" />
        </mxCell>
        <mxCell id="9Yya0px6hLWaVNeet3eG-378" value="" style="endArrow=none;html=1;rounded=0;exitX=1;exitY=1;exitDx=0;exitDy=0;entryX=0;entryY=0.5;entryDx=0;entryDy=0;" edge="1" parent="1" target="9Yya0px6hLWaVNeet3eG-370">
          <mxGeometry relative="1" as="geometry">
            <mxPoint x="165.3553390593304" y="134.1421356237322" as="sourcePoint" />
            <mxPoint x="230" y="140" as="targetPoint" />
          </mxGeometry>
        </mxCell>
        <mxCell id="9Yya0px6hLWaVNeet3eG-379" value="" style="endArrow=none;html=1;rounded=0;exitX=1;exitY=0.5;exitDx=0;exitDy=0;entryX=0;entryY=0.5;entryDx=0;entryDy=0;" edge="1" parent="1" source="9Yya0px6hLWaVNeet3eG-374" target="9Yya0px6hLWaVNeet3eG-370">
          <mxGeometry relative="1" as="geometry">
            <mxPoint x="70" y="140" as="sourcePoint" />
            <mxPoint x="230" y="140" as="targetPoint" />
          </mxGeometry>
        </mxCell>
        <mxCell id="9Yya0px6hLWaVNeet3eG-380" value="" style="endArrow=none;html=1;rounded=0;exitX=1;exitY=0;exitDx=0;exitDy=0;entryX=0;entryY=0.5;entryDx=0;entryDy=0;" edge="1" parent="1" source="9Yya0px6hLWaVNeet3eG-375" target="9Yya0px6hLWaVNeet3eG-370">
          <mxGeometry relative="1" as="geometry">
            <mxPoint x="70" y="140" as="sourcePoint" />
            <mxPoint x="230" y="140" as="targetPoint" />
          </mxGeometry>
        </mxCell>
        <mxCell id="9Yya0px6hLWaVNeet3eG-381" value="&lt;span style=&quot;border-bottom: 1px dotted&quot;&gt;patient_id&lt;/span&gt;" style="ellipse;whiteSpace=wrap;html=1;align=center;" vertex="1" parent="1">
          <mxGeometry x="80" y="100" width="100" height="40" as="geometry" />
        </mxCell>
        <mxCell id="9Yya0px6hLWaVNeet3eG-382" value="Acquires" style="shape=rhombus;perimeter=rhombusPerimeter;whiteSpace=wrap;html=1;align=center;" vertex="1" parent="1">
          <mxGeometry x="310" y="-10" width="95" height="40" as="geometry" />
        </mxCell>
        <mxCell id="9Yya0px6hLWaVNeet3eG-383" value="" style="edgeStyle=entityRelationEdgeStyle;fontSize=12;html=1;endArrow=ERzeroToMany;endFill=1;rounded=0;exitX=1;exitY=0.5;exitDx=0;exitDy=0;entryX=0;entryY=0.5;entryDx=0;entryDy=0;" edge="1" parent="1" source="9Yya0px6hLWaVNeet3eG-382" target="9Yya0px6hLWaVNeet3eG-15">
          <mxGeometry width="100" height="100" relative="1" as="geometry">
            <mxPoint x="450" y="160" as="sourcePoint" />
            <mxPoint x="550" y="60" as="targetPoint" />
          </mxGeometry>
        </mxCell>
        <mxCell id="9Yya0px6hLWaVNeet3eG-384" value="" style="edgeStyle=entityRelationEdgeStyle;fontSize=12;html=1;endArrow=ERzeroToMany;endFill=1;rounded=0;exitX=1;exitY=0.5;exitDx=0;exitDy=0;entryX=0;entryY=0.75;entryDx=0;entryDy=0;" edge="1" parent="1" source="9Yya0px6hLWaVNeet3eG-382" target="9Yya0px6hLWaVNeet3eG-33">
          <mxGeometry width="100" height="100" relative="1" as="geometry">
            <mxPoint x="400" y="90" as="sourcePoint" />
            <mxPoint x="500" y="-10" as="targetPoint" />
          </mxGeometry>
        </mxCell>
        <mxCell id="9Yya0px6hLWaVNeet3eG-385" value="Certifications" style="whiteSpace=wrap;html=1;align=center;" vertex="1" parent="1">
          <mxGeometry x="210" y="-170" width="100" height="40" as="geometry" />
        </mxCell>
        <mxCell id="9Yya0px6hLWaVNeet3eG-386" value="" style="edgeStyle=orthogonalEdgeStyle;fontSize=12;html=1;endArrow=ERoneToMany;rounded=0;exitX=0;exitY=0.5;exitDx=0;exitDy=0;entryX=0.5;entryY=1;entryDx=0;entryDy=0;" edge="1" parent="1" source="9Yya0px6hLWaVNeet3eG-382" target="9Yya0px6hLWaVNeet3eG-385">
          <mxGeometry width="100" height="100" relative="1" as="geometry">
            <mxPoint x="230" y="-20" as="sourcePoint" />
            <mxPoint x="330" y="-120" as="targetPoint" />
          </mxGeometry>
        </mxCell>
        <mxCell id="9Yya0px6hLWaVNeet3eG-387" value="certs_id" style="ellipse;whiteSpace=wrap;html=1;align=center;fontStyle=4;" vertex="1" parent="1">
          <mxGeometry x="170" y="-270" width="100" height="40" as="geometry" />
        </mxCell>
        <mxCell id="9Yya0px6hLWaVNeet3eG-388" value="&lt;span style=&quot;border-bottom: 1px dotted&quot;&gt;name&lt;/span&gt;" style="ellipse;whiteSpace=wrap;html=1;align=center;" vertex="1" parent="1">
          <mxGeometry x="270" y="-250" width="100" height="40" as="geometry" />
        </mxCell>
        <mxCell id="9Yya0px6hLWaVNeet3eG-389" value="&lt;span style=&quot;border-bottom: 1px dotted&quot;&gt;description&lt;/span&gt;" style="ellipse;whiteSpace=wrap;html=1;align=center;" vertex="1" parent="1">
          <mxGeometry x="90" y="-230" width="100" height="40" as="geometry" />
        </mxCell>
        <mxCell id="9Yya0px6hLWaVNeet3eG-390" value="" style="endArrow=none;html=1;rounded=0;exitX=0.5;exitY=0;exitDx=0;exitDy=0;entryX=0;entryY=1;entryDx=0;entryDy=0;" edge="1" parent="1" source="9Yya0px6hLWaVNeet3eG-385" target="9Yya0px6hLWaVNeet3eG-388">
          <mxGeometry relative="1" as="geometry">
            <mxPoint x="220" y="-180" as="sourcePoint" />
            <mxPoint x="330" y="-190" as="targetPoint" />
          </mxGeometry>
        </mxCell>
        <mxCell id="9Yya0px6hLWaVNeet3eG-391" value="" style="endArrow=none;html=1;rounded=0;exitX=0.5;exitY=0;exitDx=0;exitDy=0;entryX=0.5;entryY=1;entryDx=0;entryDy=0;" edge="1" parent="1" source="9Yya0px6hLWaVNeet3eG-385" target="9Yya0px6hLWaVNeet3eG-387">
          <mxGeometry relative="1" as="geometry">
            <mxPoint x="230" y="-180" as="sourcePoint" />
            <mxPoint x="330" y="-190" as="targetPoint" />
          </mxGeometry>
        </mxCell>
        <mxCell id="9Yya0px6hLWaVNeet3eG-392" value="" style="endArrow=none;html=1;rounded=0;exitX=0.5;exitY=0;exitDx=0;exitDy=0;entryX=1;entryY=1;entryDx=0;entryDy=0;" edge="1" parent="1" source="9Yya0px6hLWaVNeet3eG-385" target="9Yya0px6hLWaVNeet3eG-389">
          <mxGeometry relative="1" as="geometry">
            <mxPoint x="170" y="-190" as="sourcePoint" />
            <mxPoint x="330" y="-190" as="targetPoint" />
          </mxGeometry>
        </mxCell>
      </root>
    </mxGraphModel>
  </diagram>
</mxfile>
